{
    "asset" : {
        "generator" : "Khronos glTF Blender I/O v3.2.43",
        "version" : "2.0"
    },
    "scene" : 0,
    "scenes" : [
        {
            "name" : "Scene",
            "nodes" : [
                0,
                1,
                2,
                3
            ]
        }
    ],
    "nodes" : [
        {
            "mesh" : 0,
            "name" : "Shaft",
            "scale" : [
                0.13973362743854523,
                1.25,
                0.13973362743854523
            ],
            "translation" : [
                0,
                -0.3462813198566437,
                0
            ]
        },
        {
            "mesh" : 1,
            "name" : "Blade",
            "scale" : [
                0.1972643882036209,
                0.1972643882036209,
                0.1972643882036209
            ],
            "translation" : [
                0,
                1.4674192667007446,
                0
            ]
        },
        {
            "mesh" : 2,
            "name" : "Feather",
            "rotation" : [
                -0.5000010132789612,
                -0.5000010132789612,
                0.4999989867210388,
                0.4999989867210388
            ],
            "scale" : [
                0.6484283804893494,
                0.6484283804893494,
                0.5525031089782715
            ],
            "translation" : [
                0,
                -2.3033864498138428,
                0
            ]
        },
        {
            "mesh" : 3,
            "name" : "Feather_2",
            "rotation" : [
                0,
                0,
                0.7071068286895752,
                0.7071068286895752
            ],
            "scale" : [
                0.6484283804893494,
                0.6484283804893494,
                0.5335320234298706
            ],
            "translation" : [
                0,
                -2.403386354446411,
                0
            ]
        }
    ],
    "materials" : [
        {
            "doubleSided" : true,
            "name" : "Shaft",
            "pbrMetallicRoughness" : {
                "baseColorFactor" : [
                    0.6500058770179749,
                    0.20519791543483734,
                    0.046962957829236984,
                    1
                ],
                "metallicFactor" : 0,
                "roughnessFactor" : 0.4000000059604645
            }
        },
        {
            "doubleSided" : true,
            "name" : "Blade",
            "pbrMetallicRoughness" : {
                "baseColorFactor" : [
                    0.13286374509334564,
                    0.12324942648410797,
                    0.10551854223012924,
                    1
                ],
                "metallicFactor" : 0.7357512712478638,
                "roughnessFactor" : 0.5
            }
        },
        {
            "alphaCutoff" : 0.5,
            "alphaMode" : "MASK",
            "doubleSided" : true,
            "name" : "Feather",
            "pbrMetallicRoughness" : {
                "baseColorTexture" : {
                    "index" : 0
                },
                "metallicFactor" : 0,
                "roughnessFactor" : 0.5
            }
        }
    ],
    "meshes" : [
        {
            "name" : "Cube",
            "primitives" : [
                {
                    "attributes" : {
                        "POSITION" : 0,
                        "NORMAL" : 1,
                        "TANGENT" : 2,
                        "TEXCOORD_0" : 3
                    },
                    "indices" : 4,
                    "material" : 0
                }
            ]
        },
        {
            "name" : "Cube.001",
            "primitives" : [
                {
                    "attributes" : {
                        "POSITION" : 5,
                        "NORMAL" : 6,
                        "TANGENT" : 7,
                        "TEXCOORD_0" : 8
                    },
                    "indices" : 9,
                    "material" : 1
                }
            ]
        },
        {
            "name" : "Plane",
            "primitives" : [
                {
                    "attributes" : {
                        "POSITION" : 10,
                        "NORMAL" : 11,
                        "TANGENT" : 12,
                        "TEXCOORD_0" : 13
                    },
                    "indices" : 14,
                    "material" : 2
                }
            ]
        },
        {
            "name" : "Plane.001",
            "primitives" : [
                {
                    "attributes" : {
                        "POSITION" : 15,
                        "NORMAL" : 16,
                        "TANGENT" : 17,
                        "TEXCOORD_0" : 18
                    },
                    "indices" : 14,
                    "material" : 2
                }
            ]
        }
    ],
    "textures" : [
        {
            "sampler" : 0,
            "source" : 0
        }
    ],
    "images" : [
        {
            "mimeType" : "image/png",
            "name" : "Feather",
            "uri" : "../../Assets/Textures/Feather.png"
        }
    ],
    "accessors" : [
        {
            "bufferView" : 0,
            "componentType" : 5126,
            "count" : 57,
            "max" : [
                1.2243727445602417,
                1.201594352722168,
                1.177351713180542
            ],
            "min" : [
                -1.2243727445602417,
                -1.354548692703247,
                -1.177351713180542
            ],
            "type" : "VEC3"
        },
        {
            "bufferView" : 1,
            "componentType" : 5126,
            "count" : 57,
            "type" : "VEC3"
        },
        {
            "bufferView" : 2,
            "componentType" : 5126,
            "count" : 57,
            "type" : "VEC4"
        },
        {
            "bufferView" : 3,
            "componentType" : 5126,
            "count" : 57,
            "type" : "VEC2"
        },
        {
            "bufferView" : 4,
            "componentType" : 5123,
            "count" : 240,
            "type" : "SCALAR"
        },
        {
            "bufferView" : 5,
            "componentType" : 5126,
            "count" : 81,
            "max" : [
                1.059049129486084,
                1.9622201919555664,
                0.8124786615371704
            ],
            "min" : [
                -1.059049129486084,
                -2.0727779865264893,
                -0.8124786615371704
            ],
            "type" : "VEC3"
        },
        {
            "bufferView" : 6,
            "componentType" : 5126,
            "count" : 81,
            "type" : "VEC3"
        },
        {
            "bufferView" : 7,
            "componentType" : 5126,
            "count" : 81,
            "type" : "VEC4"
        },
        {
            "bufferView" : 8,
            "componentType" : 5126,
            "count" : 81,
            "type" : "VEC2"
        },
        {
            "bufferView" : 9,
            "componentType" : 5123,
            "count" : 144,
            "type" : "SCALAR"
        },
        {
            "bufferView" : 10,
            "componentType" : 5126,
            "count" : 8,
            "max" : [
                1,
                0,
                1
            ],
            "min" : [
                -1,
                0,
                -1
            ],
            "type" : "VEC3"
        },
        {
            "bufferView" : 11,
            "componentType" : 5126,
            "count" : 8,
            "type" : "VEC3"
        },
        {
            "bufferView" : 12,
            "componentType" : 5126,
            "count" : 8,
            "type" : "VEC4"
        },
        {
            "bufferView" : 13,
            "componentType" : 5126,
            "count" : 8,
            "type" : "VEC2"
        },
        {
            "bufferView" : 14,
            "componentType" : 5123,
            "count" : 12,
            "type" : "SCALAR"
        },
        {
            "bufferView" : 15,
            "componentType" : 5126,
            "count" : 8,
            "max" : [
                1,
                0,
                1
            ],
            "min" : [
                -1,
                0,
                -1
            ],
            "type" : "VEC3"
        },
        {
            "bufferView" : 16,
            "componentType" : 5126,
            "count" : 8,
            "type" : "VEC3"
        },
        {
            "bufferView" : 17,
            "componentType" : 5126,
            "count" : 8,
            "type" : "VEC4"
        },
        {
            "bufferView" : 18,
            "componentType" : 5126,
            "count" : 8,
            "type" : "VEC2"
        }
    ],
    "bufferViews" : [
        {
            "buffer" : 0,
            "byteLength" : 684,
            "byteOffset" : 0
        },
        {
            "buffer" : 0,
            "byteLength" : 684,
            "byteOffset" : 684
        },
        {
            "buffer" : 0,
            "byteLength" : 912,
            "byteOffset" : 1368
        },
        {
            "buffer" : 0,
            "byteLength" : 456,
            "byteOffset" : 2280
        },
        {
            "buffer" : 0,
            "byteLength" : 480,
            "byteOffset" : 2736
        },
        {
            "buffer" : 0,
            "byteLength" : 972,
            "byteOffset" : 3216
        },
        {
            "buffer" : 0,
            "byteLength" : 972,
            "byteOffset" : 4188
        },
        {
            "buffer" : 0,
            "byteLength" : 1296,
            "byteOffset" : 5160
        },
        {
            "buffer" : 0,
            "byteLength" : 648,
            "byteOffset" : 6456
        },
        {
            "buffer" : 0,
            "byteLength" : 288,
            "byteOffset" : 7104
        },
        {
            "buffer" : 0,
            "byteLength" : 96,
            "byteOffset" : 7392
        },
        {
            "buffer" : 0,
            "byteLength" : 96,
            "byteOffset" : 7488
        },
        {
            "buffer" : 0,
            "byteLength" : 128,
            "byteOffset" : 7584
        },
        {
            "buffer" : 0,
            "byteLength" : 64,
            "byteOffset" : 7712
        },
        {
            "buffer" : 0,
            "byteLength" : 24,
            "byteOffset" : 7776
        },
        {
            "buffer" : 0,
            "byteLength" : 96,
            "byteOffset" : 7800
        },
        {
            "buffer" : 0,
            "byteLength" : 96,
            "byteOffset" : 7896
        },
        {
            "buffer" : 0,
            "byteLength" : 128,
            "byteOffset" : 7992
        },
        {
            "buffer" : 0,
            "byteLength" : 64,
            "byteOffset" : 8120
        }
    ],
    "samplers" : [
        {
            "magFilter" : 9729,
            "minFilter" : 9987
        }
    ],
    "buffers" : [
        {
            "byteLength" : 8184,
            "uri" : "Arrow-b077f42028ea89877297fadce3edfd40.bin"
        }
    ]
}
