{
    "asset" : {
        "generator" : "Khronos glTF Blender I/O v3.2.43",
        "version" : "2.0"
    },
    "scene" : 0,
    "scenes" : [
        {
            "name" : "Scene",
            "nodes" : [
                10
            ]
        }
    ],
    "nodes" : [
        {
            "name" : "brow.L",
            "rotation" : [
                -0.5602307319641113,
                -0.44421133399009705,
                -0.43438583612442017,
                0.5478382110595703
            ],
            "scale" : [
                1.0000001192092896,
                1.000000238418579,
                1
            ],
            "translation" : [
                1.2390755728119984e-05,
                0.009540576487779617,
                -0.6045284867286682
            ]
        },
        {
            "name" : "brow.R",
            "rotation" : [
                -0.5602396130561829,
                0.44420015811920166,
                0.4343743324279785,
                0.5478475093841553
            ],
            "translation" : [
                1.2390755728119984e-05,
                0.009540576487779617,
                -0.6045284867286682
            ]
        },
        {
            "children" : [
                0,
                1
            ],
            "name" : "eye",
            "rotation" : [
                0.7149701118469238,
                7.081792318786029e-06,
                7.41244593882584e-06,
                0.6991550922393799
            ],
            "scale" : [
                1,
                0.9999999403953552,
                0.9999999403953552
            ],
            "translation" : [
                -2.550711144522211e-07,
                0.8204707503318787,
                1.0698457956314087
            ]
        },
        {
            "children" : [
                2
            ],
            "name" : "main",
            "rotation" : [
                0,
                1.1920928955078125e-07,
                0,
                1
            ]
        },
        {
            "name" : "back.R",
            "rotation" : [
                0.5740714073181152,
                -0.3533001244068146,
                0.28712183237075806,
                0.6805748343467712
            ],
            "scale" : [
                0.9999999403953552,
                0.9999999403953552,
                1
            ],
            "translation" : [
                0,
                0.3815503418445587,
                0
            ]
        },
        {
            "name" : "front.R",
            "rotation" : [
                -0.5647770762443542,
                0.36292022466659546,
                0.3030412495136261,
                0.676374077796936
            ],
            "scale" : [
                1,
                1.0000001192092896,
                1
            ],
            "translation" : [
                0,
                0.3815503418445587,
                0
            ]
        },
        {
            "name" : "back.L",
            "rotation" : [
                0.5740714073181152,
                0.3533001244068146,
                -0.28712183237075806,
                0.6805748343467712
            ],
            "scale" : [
                0.9999999403953552,
                0.9999999403953552,
                1
            ],
            "translation" : [
                0,
                0.3815503418445587,
                0
            ]
        },
        {
            "name" : "front.L",
            "rotation" : [
                -0.5647770762443542,
                -0.36292022466659546,
                -0.3030412495136261,
                0.676374077796936
            ],
            "scale" : [
                1,
                1.0000001192092896,
                1
            ],
            "translation" : [
                0,
                0.3815503418445587,
                0
            ]
        },
        {
            "children" : [
                4,
                5,
                6,
                7
            ],
            "name" : "bottom",
            "rotation" : [
                1,
                0,
                0,
                0
            ]
        },
        {
            "mesh" : 0,
            "name" : "Model",
            "skin" : 0
        },
        {
            "children" : [
                9,
                3,
                8
            ],
            "name" : "Blog",
            "translation" : [
                0,
                0.800000011920929,
                0
            ]
        }
    ],
    "materials" : [
        {
            "doubleSided" : true,
            "name" : "brow.001",
            "pbrMetallicRoughness" : {
                "baseColorFactor" : [
                    0,
                    0,
                    0,
                    1
                ],
                "metallicFactor" : 0,
                "roughnessFactor" : 0.5
            }
        },
        {
            "doubleSided" : true,
            "name" : "base.001",
            "pbrMetallicRoughness" : {
                "baseColorFactor" : [
                    0.8000000715255737,
                    0,
                    0.019299400970339775,
                    1
                ],
                "metallicFactor" : 0,
                "roughnessFactor" : 0.4000000059604645
            }
        },
        {
            "doubleSided" : true,
            "name" : "eye.001",
            "pbrMetallicRoughness" : {
                "baseColorTexture" : {
                    "index" : 0
                },
                "metallicFactor" : 0,
                "roughnessFactor" : 0.5
            }
        }
    ],
    "meshes" : [
        {
            "name" : "Cube.001",
            "primitives" : [
                {
                    "attributes" : {
                        "POSITION" : 0,
                        "NORMAL" : 1,
                        "TANGENT" : 2,
                        "TEXCOORD_0" : 3,
                        "JOINTS_0" : 4,
                        "JOINTS_1" : 5,
                        "WEIGHTS_1" : 6
                    },
                    "indices" : 7,
                    "material" : 0
                },
                {
                    "attributes" : {
                        "POSITION" : 8,
                        "NORMAL" : 9,
                        "TANGENT" : 10,
                        "TEXCOORD_0" : 11,
                        "JOINTS_0" : 12,
                        "JOINTS_1" : 13,
                        "WEIGHTS_1" : 14
                    },
                    "indices" : 15,
                    "material" : 1
                },
                {
                    "attributes" : {
                        "POSITION" : 16,
                        "NORMAL" : 17,
                        "TANGENT" : 18,
                        "TEXCOORD_0" : 19,
                        "JOINTS_0" : 20,
                        "JOINTS_1" : 21,
                        "WEIGHTS_1" : 22
                    },
                    "indices" : 23,
                    "material" : 2
                }
            ]
        }
    ],
    "textures" : [
        {
            "sampler" : 0,
            "source" : 0
        }
    ],
    "images" : [
        {
            "mimeType" : "image/png",
            "name" : "eye.png.001",
            "uri" : "../../Assets/Models/LevelObjects/Entities/Blog/eye.png"
        }
    ],
    "skins" : [
        {
            "inverseBindMatrices" : 24,
            "joints" : [
                3,
                2,
                0,
                1,
                8,
                4,
                5,
                6,
                7
            ],
            "name" : "Blog"
        }
    ],
    "accessors" : [
        {
            "bufferView" : 0,
            "componentType" : 5126,
            "count" : 18,
            "max" : [
                1.0653517246246338,
                2.58520245552063,
                1.1522895097732544
            ],
            "min" : [
                -1.0653517246246338,
                2.2179226875305176,
                0.8702114820480347
            ],
            "type" : "VEC3"
        },
        {
            "bufferView" : 1,
            "componentType" : 5126,
            "count" : 18,
            "type" : "VEC3"
        },
        {
            "bufferView" : 2,
            "componentType" : 5126,
            "count" : 18,
            "type" : "VEC4"
        },
        {
            "bufferView" : 3,
            "componentType" : 5126,
            "count" : 18,
            "type" : "VEC2"
        },
        {
            "bufferView" : 4,
            "componentType" : 5121,
            "count" : 18,
            "type" : "VEC4"
        },
        {
            "bufferView" : 5,
            "componentType" : 5121,
            "count" : 18,
            "type" : "VEC4"
        },
        {
            "bufferView" : 6,
            "componentType" : 5126,
            "count" : 18,
            "type" : "VEC4"
        },
        {
            "bufferView" : 7,
            "componentType" : 5123,
            "count" : 24,
            "type" : "SCALAR"
        },
        {
            "bufferView" : 8,
            "componentType" : 5126,
            "count" : 8717,
            "max" : [
                1.308012843132019,
                2.8897128105163574,
                1.2640535831451416
            ],
            "min" : [
                -1.308012843132019,
                0.020729780197143555,
                -1.3719289302825928
            ],
            "type" : "VEC3"
        },
        {
            "bufferView" : 9,
            "componentType" : 5126,
            "count" : 8717,
            "type" : "VEC3"
        },
        {
            "bufferView" : 10,
            "componentType" : 5126,
            "count" : 8717,
            "type" : "VEC4"
        },
        {
            "bufferView" : 11,
            "componentType" : 5126,
            "count" : 8717,
            "type" : "VEC2"
        },
        {
            "bufferView" : 12,
            "componentType" : 5121,
            "count" : 8717,
            "type" : "VEC4"
        },
        {
            "bufferView" : 13,
            "componentType" : 5121,
            "count" : 8717,
            "type" : "VEC4"
        },
        {
            "bufferView" : 14,
            "componentType" : 5126,
            "count" : 8717,
            "type" : "VEC4"
        },
        {
            "bufferView" : 15,
            "componentType" : 5123,
            "count" : 34176,
            "type" : "SCALAR"
        },
        {
            "bufferView" : 16,
            "componentType" : 5126,
            "count" : 546,
            "max" : [
                0.6703198552131653,
                2.2980918884277344,
                1.5301015377044678
            ],
            "min" : [
                -0.6703195571899414,
                0.9574521780014038,
                0.5130497217178345
            ],
            "type" : "VEC3"
        },
        {
            "bufferView" : 17,
            "componentType" : 5126,
            "count" : 546,
            "type" : "VEC3"
        },
        {
            "bufferView" : 18,
            "componentType" : 5126,
            "count" : 546,
            "type" : "VEC4"
        },
        {
            "bufferView" : 19,
            "componentType" : 5126,
            "count" : 546,
            "type" : "VEC2"
        },
        {
            "bufferView" : 20,
            "componentType" : 5121,
            "count" : 546,
            "type" : "VEC4"
        },
        {
            "bufferView" : 21,
            "componentType" : 5121,
            "count" : 546,
            "type" : "VEC4"
        },
        {
            "bufferView" : 22,
            "componentType" : 5126,
            "count" : 546,
            "type" : "VEC4"
        },
        {
            "bufferView" : 23,
            "componentType" : 5123,
            "count" : 2880,
            "type" : "SCALAR"
        },
        {
            "bufferView" : 24,
            "componentType" : 5126,
            "count" : 9,
            "type" : "MAT4"
        }
    ],
    "bufferViews" : [
        {
            "buffer" : 0,
            "byteLength" : 216,
            "byteOffset" : 0
        },
        {
            "buffer" : 0,
            "byteLength" : 216,
            "byteOffset" : 216
        },
        {
            "buffer" : 0,
            "byteLength" : 288,
            "byteOffset" : 432
        },
        {
            "buffer" : 0,
            "byteLength" : 144,
            "byteOffset" : 720
        },
        {
            "buffer" : 0,
            "byteLength" : 72,
            "byteOffset" : 864
        },
        {
            "buffer" : 0,
            "byteLength" : 72,
            "byteOffset" : 936
        },
        {
            "buffer" : 0,
            "byteLength" : 288,
            "byteOffset" : 1008
        },
        {
            "buffer" : 0,
            "byteLength" : 48,
            "byteOffset" : 1296
        },
        {
            "buffer" : 0,
            "byteLength" : 104604,
            "byteOffset" : 1344
        },
        {
            "buffer" : 0,
            "byteLength" : 104604,
            "byteOffset" : 105948
        },
        {
            "buffer" : 0,
            "byteLength" : 139472,
            "byteOffset" : 210552
        },
        {
            "buffer" : 0,
            "byteLength" : 69736,
            "byteOffset" : 350024
        },
        {
            "buffer" : 0,
            "byteLength" : 34868,
            "byteOffset" : 419760
        },
        {
            "buffer" : 0,
            "byteLength" : 34868,
            "byteOffset" : 454628
        },
        {
            "buffer" : 0,
            "byteLength" : 139472,
            "byteOffset" : 489496
        },
        {
            "buffer" : 0,
            "byteLength" : 68352,
            "byteOffset" : 628968
        },
        {
            "buffer" : 0,
            "byteLength" : 6552,
            "byteOffset" : 697320
        },
        {
            "buffer" : 0,
            "byteLength" : 6552,
            "byteOffset" : 703872
        },
        {
            "buffer" : 0,
            "byteLength" : 8736,
            "byteOffset" : 710424
        },
        {
            "buffer" : 0,
            "byteLength" : 4368,
            "byteOffset" : 719160
        },
        {
            "buffer" : 0,
            "byteLength" : 2184,
            "byteOffset" : 723528
        },
        {
            "buffer" : 0,
            "byteLength" : 2184,
            "byteOffset" : 725712
        },
        {
            "buffer" : 0,
            "byteLength" : 8736,
            "byteOffset" : 727896
        },
        {
            "buffer" : 0,
            "byteLength" : 5760,
            "byteOffset" : 736632
        },
        {
            "buffer" : 0,
            "byteLength" : 576,
            "byteOffset" : 742392
        }
    ],
    "samplers" : [
        {
            "magFilter" : 9729,
            "minFilter" : 9987
        }
    ],
    "buffers" : [
        {
            "byteLength" : 742968,
            "uri" : "Blog-fc72417c04b211b71080612b9eec512d.bin"
        }
    ]
}
