{
    "asset" : {
        "generator" : "Khronos glTF Blender I/O v3.2.43",
        "version" : "2.0"
    },
    "scene" : 0,
    "scenes" : [
        {
            "name" : "Scene",
            "nodes" : [
                11
            ]
        }
    ],
    "nodes" : [
        {
            "name" : "brow.L",
            "rotation" : [
                -0.5602307319641113,
                -0.44421133399009705,
                -0.43438583612442017,
                0.5478382110595703
            ],
            "scale" : [
                1.0000001192092896,
                1.000000238418579,
                1
            ],
            "translation" : [
                1.2390755728119984e-05,
                0.009540554136037827,
                -0.6045284867286682
            ]
        },
        {
            "name" : "brow.R",
            "rotation" : [
                -0.5602396130561829,
                0.44420015811920166,
                0.4343743324279785,
                0.5478475093841553
            ],
            "translation" : [
                1.2390755728119984e-05,
                0.009540554136037827,
                -0.6045284867286682
            ]
        },
        {
            "children" : [
                0,
                1
            ],
            "name" : "eye",
            "rotation" : [
                0.7149701118469238,
                7.081792318786029e-06,
                7.41244593882584e-06,
                0.6991550922393799
            ],
            "scale" : [
                1,
                0.9999999403953552,
                0.9999999403953552
            ],
            "translation" : [
                -2.550711144522211e-07,
                0.8204708099365234,
                1.0698457956314087
            ]
        },
        {
            "children" : [
                2
            ],
            "name" : "main",
            "rotation" : [
                0,
                1.1920928955078125e-07,
                0,
                1
            ]
        },
        {
            "name" : "back.R",
            "rotation" : [
                0.5740714073181152,
                -0.3533001244068146,
                0.28712183237075806,
                0.6805748343467712
            ],
            "scale" : [
                0.9999999403953552,
                0.9999999403953552,
                1
            ],
            "translation" : [
                0,
                0.3815503418445587,
                0
            ]
        },
        {
            "name" : "front.R",
            "rotation" : [
                -0.5647770762443542,
                0.36292022466659546,
                0.3030412495136261,
                0.676374077796936
            ],
            "scale" : [
                1,
                1.0000001192092896,
                1
            ],
            "translation" : [
                0,
                0.3815503418445587,
                0
            ]
        },
        {
            "name" : "back.L",
            "rotation" : [
                0.5740714073181152,
                0.3533001244068146,
                -0.28712183237075806,
                0.6805748343467712
            ],
            "scale" : [
                0.9999999403953552,
                0.9999999403953552,
                1
            ],
            "translation" : [
                0,
                0.3815503418445587,
                0
            ]
        },
        {
            "name" : "front.L",
            "rotation" : [
                -0.5647770762443542,
                -0.36292022466659546,
                -0.3030412495136261,
                0.676374077796936
            ],
            "scale" : [
                1,
                1.0000001192092896,
                1
            ],
            "translation" : [
                0,
                0.3815503418445587,
                0
            ]
        },
        {
            "children" : [
                4,
                5,
                6,
                7
            ],
            "name" : "bottom",
            "rotation" : [
                1,
                0,
                0,
                0
            ]
        },
        {
            "name" : "neutral_bone",
            "rotation" : [
                -0.7071068286895752,
                0,
                0,
                0.7071068286895752
            ]
        },
        {
            "mesh" : 0,
            "name" : "model",
            "skin" : 0
        },
        {
            "children" : [
                10,
                3,
                8,
                9
            ],
            "name" : "Blog"
        }
    ],
    "materials" : [
        {
            "doubleSided" : true,
            "name" : "brow",
            "pbrMetallicRoughness" : {
                "baseColorFactor" : [
                    0,
                    0,
                    0,
                    1
                ],
                "metallicFactor" : 0,
                "roughnessFactor" : 0.5
            }
        },
        {
            "doubleSided" : true,
            "name" : "base",
            "pbrMetallicRoughness" : {
                "baseColorFactor" : [
                    0.8000000715255737,
                    0,
                    0.019299400970339775,
                    1
                ],
                "metallicFactor" : 0,
                "roughnessFactor" : 0.4000000059604645
            }
        },
        {
            "doubleSided" : true,
            "name" : "eye",
            "pbrMetallicRoughness" : {
                "baseColorFactor" : [
                    0.800000011920929,
                    0.800000011920929,
                    0.800000011920929,
                    1
                ],
                "metallicFactor" : 0,
                "roughnessFactor" : 0.5
            }
        }
    ],
    "meshes" : [
        {
            "name" : "Cube.003",
            "primitives" : [
                {
                    "attributes" : {
                        "POSITION" : 0,
                        "NORMAL" : 1,
                        "TANGENT" : 2,
                        "TEXCOORD_0" : 3,
                        "JOINTS_0" : 4,
                        "WEIGHTS_0" : 5
                    },
                    "indices" : 6,
                    "material" : 0
                },
                {
                    "attributes" : {
                        "POSITION" : 7,
                        "NORMAL" : 8,
                        "TANGENT" : 9,
                        "TEXCOORD_0" : 10,
                        "JOINTS_0" : 11,
                        "WEIGHTS_0" : 12
                    },
                    "indices" : 13,
                    "material" : 1
                },
                {
                    "attributes" : {
                        "POSITION" : 14,
                        "NORMAL" : 15,
                        "TANGENT" : 16,
                        "TEXCOORD_0" : 17,
                        "JOINTS_0" : 18,
                        "WEIGHTS_0" : 19
                    },
                    "indices" : 20,
                    "material" : 2
                }
            ]
        }
    ],
    "skins" : [
        {
            "inverseBindMatrices" : 21,
            "joints" : [
                3,
                2,
                0,
                1,
                8,
                4,
                5,
                6,
                7,
                9
            ],
            "name" : "Blog"
        }
    ],
    "accessors" : [
        {
            "bufferView" : 0,
            "componentType" : 5126,
            "count" : 18,
            "max" : [
                1.0653517246246338,
                1.7521979808807373,
                1.2339428663253784
            ],
            "min" : [
                -1.0653517246246338,
                1.3849183320999146,
                0.9518648386001587
            ],
            "type" : "VEC3"
        },
        {
            "bufferView" : 1,
            "componentType" : 5126,
            "count" : 18,
            "type" : "VEC3"
        },
        {
            "bufferView" : 2,
            "componentType" : 5126,
            "count" : 18,
            "type" : "VEC4"
        },
        {
            "bufferView" : 3,
            "componentType" : 5126,
            "count" : 18,
            "type" : "VEC2"
        },
        {
            "bufferView" : 4,
            "componentType" : 5121,
            "count" : 18,
            "type" : "VEC4"
        },
        {
            "bufferView" : 5,
            "componentType" : 5126,
            "count" : 18,
            "type" : "VEC4"
        },
        {
            "bufferView" : 6,
            "componentType" : 5123,
            "count" : 24,
            "type" : "SCALAR"
        },
        {
            "bufferView" : 7,
            "componentType" : 5126,
            "count" : 8716,
            "max" : [
                1.308012843132019,
                2.056708335876465,
                1.3457069396972656
            ],
            "min" : [
                -1.308012843132019,
                -0.812274694442749,
                -1.2902755737304688
            ],
            "type" : "VEC3"
        },
        {
            "bufferView" : 8,
            "componentType" : 5126,
            "count" : 8716,
            "type" : "VEC3"
        },
        {
            "bufferView" : 9,
            "componentType" : 5126,
            "count" : 8716,
            "type" : "VEC4"
        },
        {
            "bufferView" : 10,
            "componentType" : 5126,
            "count" : 8716,
            "type" : "VEC2"
        },
        {
            "bufferView" : 11,
            "componentType" : 5121,
            "count" : 8716,
            "type" : "VEC4"
        },
        {
            "bufferView" : 12,
            "componentType" : 5126,
            "count" : 8716,
            "type" : "VEC4"
        },
        {
            "bufferView" : 13,
            "componentType" : 5123,
            "count" : 34176,
            "type" : "SCALAR"
        },
        {
            "bufferView" : 14,
            "componentType" : 5126,
            "count" : 546,
            "max" : [
                0.6703198552131653,
                1.4650872945785522,
                1.6117548942565918
            ],
            "min" : [
                -0.6703195571899414,
                0.12444770336151123,
                0.5947030782699585
            ],
            "type" : "VEC3"
        },
        {
            "bufferView" : 15,
            "componentType" : 5126,
            "count" : 546,
            "type" : "VEC3"
        },
        {
            "bufferView" : 16,
            "componentType" : 5126,
            "count" : 546,
            "type" : "VEC4"
        },
        {
            "bufferView" : 17,
            "componentType" : 5126,
            "count" : 546,
            "type" : "VEC2"
        },
        {
            "bufferView" : 18,
            "componentType" : 5121,
            "count" : 546,
            "type" : "VEC4"
        },
        {
            "bufferView" : 19,
            "componentType" : 5126,
            "count" : 546,
            "type" : "VEC4"
        },
        {
            "bufferView" : 20,
            "componentType" : 5123,
            "count" : 2880,
            "type" : "SCALAR"
        },
        {
            "bufferView" : 21,
            "componentType" : 5126,
            "count" : 10,
            "type" : "MAT4"
        }
    ],
    "bufferViews" : [
        {
            "buffer" : 0,
            "byteLength" : 216,
            "byteOffset" : 0
        },
        {
            "buffer" : 0,
            "byteLength" : 216,
            "byteOffset" : 216
        },
        {
            "buffer" : 0,
            "byteLength" : 288,
            "byteOffset" : 432
        },
        {
            "buffer" : 0,
            "byteLength" : 144,
            "byteOffset" : 720
        },
        {
            "buffer" : 0,
            "byteLength" : 72,
            "byteOffset" : 864
        },
        {
            "buffer" : 0,
            "byteLength" : 288,
            "byteOffset" : 936
        },
        {
            "buffer" : 0,
            "byteLength" : 48,
            "byteOffset" : 1224
        },
        {
            "buffer" : 0,
            "byteLength" : 104592,
            "byteOffset" : 1272
        },
        {
            "buffer" : 0,
            "byteLength" : 104592,
            "byteOffset" : 105864
        },
        {
            "buffer" : 0,
            "byteLength" : 139456,
            "byteOffset" : 210456
        },
        {
            "buffer" : 0,
            "byteLength" : 69728,
            "byteOffset" : 349912
        },
        {
            "buffer" : 0,
            "byteLength" : 34864,
            "byteOffset" : 419640
        },
        {
            "buffer" : 0,
            "byteLength" : 139456,
            "byteOffset" : 454504
        },
        {
            "buffer" : 0,
            "byteLength" : 68352,
            "byteOffset" : 593960
        },
        {
            "buffer" : 0,
            "byteLength" : 6552,
            "byteOffset" : 662312
        },
        {
            "buffer" : 0,
            "byteLength" : 6552,
            "byteOffset" : 668864
        },
        {
            "buffer" : 0,
            "byteLength" : 8736,
            "byteOffset" : 675416
        },
        {
            "buffer" : 0,
            "byteLength" : 4368,
            "byteOffset" : 684152
        },
        {
            "buffer" : 0,
            "byteLength" : 2184,
            "byteOffset" : 688520
        },
        {
            "buffer" : 0,
            "byteLength" : 8736,
            "byteOffset" : 690704
        },
        {
            "buffer" : 0,
            "byteLength" : 5760,
            "byteOffset" : 699440
        },
        {
            "buffer" : 0,
            "byteLength" : 640,
            "byteOffset" : 705200
        }
    ],
    "buffers" : [
        {
            "byteLength" : 705840,
            "uri" : "Blog-fc72417c04b211b71080612b9eec512d.bin"
        }
    ]
}
