{
    "asset" : {
        "generator" : "Khronos glTF Blender I/O v3.2.43",
        "version" : "2.0"
    },
    "scene" : 0,
    "scenes" : [
        {
            "name" : "Scene",
            "nodes" : [
                0,
                1
            ]
        }
    ],
    "nodes" : [
        {
            "mesh" : 0,
            "name" : "bomb"
        },
        {
            "mesh" : 1,
            "name" : "fuze",
            "scale" : [
                0.05852391570806503,
                0.05852391570806503,
                0.05852391570806503
            ],
            "translation" : [
                0,
                1.100000023841858,
                0
            ]
        }
    ],
    "materials" : [
        {
            "doubleSided" : true,
            "name" : "bomb",
            "pbrMetallicRoughness" : {
                "baseColorFactor" : [
                    0.800000011920929,
                    0.800000011920929,
                    0.800000011920929,
                    1
                ],
                "metallicFactor" : 0,
                "roughnessFactor" : 0.5
            }
        },
        {
            "doubleSided" : true,
            "name" : "fuze",
            "pbrMetallicRoughness" : {
                "baseColorFactor" : [
                    0.800000011920929,
                    0.800000011920929,
                    0.800000011920929,
                    1
                ],
                "metallicFactor" : 0,
                "roughnessFactor" : 0.5
            }
        }
    ],
    "meshes" : [
        {
            "name" : "Sphere",
            "primitives" : [
                {
                    "attributes" : {
                        "POSITION" : 0,
                        "NORMAL" : 1,
                        "TANGENT" : 2,
                        "TEXCOORD_0" : 3
                    },
                    "indices" : 4,
                    "material" : 0
                }
            ]
        },
        {
            "name" : "Cylinder",
            "primitives" : [
                {
                    "attributes" : {
                        "POSITION" : 5,
                        "NORMAL" : 6,
                        "TEXCOORD_0" : 7
                    },
                    "indices" : 8,
                    "material" : 1
                }
            ]
        }
    ],
    "accessors" : [
        {
            "bufferView" : 0,
            "componentType" : 5126,
            "count" : 1272,
            "max" : [
                1.072176456451416,
                1.1838322877883911,
                1.0733200311660767
            ],
            "min" : [
                -1.0723809003829956,
                -1.0624332427978516,
                -1.0712367296218872
            ],
            "type" : "VEC3"
        },
        {
            "bufferView" : 1,
            "componentType" : 5126,
            "count" : 1272,
            "type" : "VEC3"
        },
        {
            "bufferView" : 2,
            "componentType" : 5126,
            "count" : 1272,
            "type" : "VEC4"
        },
        {
            "bufferView" : 3,
            "componentType" : 5126,
            "count" : 1272,
            "type" : "VEC2"
        },
        {
            "bufferView" : 4,
            "componentType" : 5123,
            "count" : 4782,
            "type" : "SCALAR"
        },
        {
            "bufferView" : 5,
            "componentType" : 5126,
            "count" : 394,
            "max" : [
                1.293196201324463,
                9.59836483001709,
                1.8231287002563477
            ],
            "min" : [
                -1.1709212064743042,
                -1,
                -1
            ],
            "type" : "VEC3"
        },
        {
            "bufferView" : 6,
            "componentType" : 5126,
            "count" : 394,
            "type" : "VEC3"
        },
        {
            "bufferView" : 7,
            "componentType" : 5126,
            "count" : 394,
            "type" : "VEC2"
        },
        {
            "bufferView" : 8,
            "componentType" : 5123,
            "count" : 1908,
            "type" : "SCALAR"
        }
    ],
    "bufferViews" : [
        {
            "buffer" : 0,
            "byteLength" : 15264,
            "byteOffset" : 0
        },
        {
            "buffer" : 0,
            "byteLength" : 15264,
            "byteOffset" : 15264
        },
        {
            "buffer" : 0,
            "byteLength" : 20352,
            "byteOffset" : 30528
        },
        {
            "buffer" : 0,
            "byteLength" : 10176,
            "byteOffset" : 50880
        },
        {
            "buffer" : 0,
            "byteLength" : 9564,
            "byteOffset" : 61056
        },
        {
            "buffer" : 0,
            "byteLength" : 4728,
            "byteOffset" : 70620
        },
        {
            "buffer" : 0,
            "byteLength" : 4728,
            "byteOffset" : 75348
        },
        {
            "buffer" : 0,
            "byteLength" : 3152,
            "byteOffset" : 80076
        },
        {
            "buffer" : 0,
            "byteLength" : 3816,
            "byteOffset" : 83228
        }
    ],
    "buffers" : [
        {
            "byteLength" : 87044,
            "uri" : "bomb-d6e1b981dd928ab9e20b46ad8a5fd1c0.bin"
        }
    ]
}
