{
    "asset" : {
        "generator" : "Khronos glTF Blender I/O v3.2.43",
        "version" : "2.0"
    },
    "scene" : 0,
    "scenes" : [
        {
            "name" : "Scene",
            "nodes" : [
                0,
                1
            ]
        }
    ],
    "nodes" : [
        {
            "mesh" : 0,
            "name" : "bomb"
        },
        {
            "mesh" : 1,
            "name" : "fuze",
            "scale" : [
                0.05599910020828247,
                0.05599910020828247,
                0.05599910020828247
            ],
            "translation" : [
                0,
                1.100000023841858,
                0
            ]
        }
    ],
    "materials" : [
        {
            "doubleSided" : true,
            "name" : "metal",
            "pbrMetallicRoughness" : {
                "baseColorFactor" : [
                    0.027209972962737083,
                    0.027209972962737083,
                    0.027209972962737083,
                    1
                ],
                "metallicFactor" : 0.9322916269302368,
                "roughnessFactor" : 0.25
            }
        },
        {
            "doubleSided" : true,
            "name" : "border",
            "pbrMetallicRoughness" : {
                "baseColorFactor" : [
                    0.8000000715255737,
                    0.588535487651825,
                    0.0014873541658744216,
                    1
                ],
                "metallicFactor" : 0,
                "roughnessFactor" : 0.5
            }
        },
        {
            "doubleSided" : true,
            "name" : "fuze",
            "pbrMetallicRoughness" : {
                "baseColorFactor" : [
                    0.8000000715255737,
                    0.7809716463088989,
                    0.6078652739524841,
                    1
                ],
                "metallicFactor" : 0,
                "roughnessFactor" : 0.5
            }
        }
    ],
    "meshes" : [
        {
            "name" : "Sphere",
            "primitives" : [
                {
                    "attributes" : {
                        "POSITION" : 0,
                        "NORMAL" : 1,
                        "TEXCOORD_0" : 2
                    },
                    "indices" : 3,
                    "material" : 0
                },
                {
                    "attributes" : {
                        "POSITION" : 4,
                        "NORMAL" : 5,
                        "TEXCOORD_0" : 6
                    },
                    "indices" : 7,
                    "material" : 1
                }
            ]
        },
        {
            "name" : "Cylinder",
            "primitives" : [
                {
                    "attributes" : {
                        "POSITION" : 8,
                        "NORMAL" : 9,
                        "TEXCOORD_0" : 10
                    },
                    "indices" : 11,
                    "material" : 2
                }
            ]
        }
    ],
    "accessors" : [
        {
            "bufferView" : 0,
            "componentType" : 5126,
            "count" : 1096,
            "max" : [
                0.9999997019767761,
                1.1140657663345337,
                0.9999994039535522
            ],
            "min" : [
                -0.9999990463256836,
                -1,
                -0.9999987483024597
            ],
            "type" : "VEC3"
        },
        {
            "bufferView" : 1,
            "componentType" : 5126,
            "count" : 1096,
            "type" : "VEC3"
        },
        {
            "bufferView" : 2,
            "componentType" : 5126,
            "count" : 1096,
            "type" : "VEC2"
        },
        {
            "bufferView" : 3,
            "componentType" : 5123,
            "count" : 3624,
            "type" : "SCALAR"
        },
        {
            "bufferView" : 4,
            "componentType" : 5126,
            "count" : 474,
            "max" : [
                1.072176456451416,
                1.1838322877883911,
                1.0733200311660767
            ],
            "min" : [
                -1.0723809003829956,
                -1.0624332427978516,
                -1.0712367296218872
            ],
            "type" : "VEC3"
        },
        {
            "bufferView" : 5,
            "componentType" : 5126,
            "count" : 474,
            "type" : "VEC3"
        },
        {
            "bufferView" : 6,
            "componentType" : 5126,
            "count" : 474,
            "type" : "VEC2"
        },
        {
            "bufferView" : 7,
            "componentType" : 5123,
            "count" : 1122,
            "type" : "SCALAR"
        },
        {
            "bufferView" : 8,
            "componentType" : 5126,
            "count" : 394,
            "max" : [
                1.293196201324463,
                9.59836483001709,
                1.8231287002563477
            ],
            "min" : [
                -1.1709212064743042,
                -1,
                -1
            ],
            "type" : "VEC3"
        },
        {
            "bufferView" : 9,
            "componentType" : 5126,
            "count" : 394,
            "type" : "VEC3"
        },
        {
            "bufferView" : 10,
            "componentType" : 5126,
            "count" : 394,
            "type" : "VEC2"
        },
        {
            "bufferView" : 11,
            "componentType" : 5123,
            "count" : 1908,
            "type" : "SCALAR"
        }
    ],
    "bufferViews" : [
        {
            "buffer" : 0,
            "byteLength" : 13152,
            "byteOffset" : 0
        },
        {
            "buffer" : 0,
            "byteLength" : 13152,
            "byteOffset" : 13152
        },
        {
            "buffer" : 0,
            "byteLength" : 8768,
            "byteOffset" : 26304
        },
        {
            "buffer" : 0,
            "byteLength" : 7248,
            "byteOffset" : 35072
        },
        {
            "buffer" : 0,
            "byteLength" : 5688,
            "byteOffset" : 42320
        },
        {
            "buffer" : 0,
            "byteLength" : 5688,
            "byteOffset" : 48008
        },
        {
            "buffer" : 0,
            "byteLength" : 3792,
            "byteOffset" : 53696
        },
        {
            "buffer" : 0,
            "byteLength" : 2244,
            "byteOffset" : 57488
        },
        {
            "buffer" : 0,
            "byteLength" : 4728,
            "byteOffset" : 59732
        },
        {
            "buffer" : 0,
            "byteLength" : 4728,
            "byteOffset" : 64460
        },
        {
            "buffer" : 0,
            "byteLength" : 3152,
            "byteOffset" : 69188
        },
        {
            "buffer" : 0,
            "byteLength" : 3816,
            "byteOffset" : 72340
        }
    ],
    "buffers" : [
        {
            "byteLength" : 76156,
            "uri" : "bomb-5bd9c6c3979858fe39f31c6f5f834347.bin"
        }
    ]
}
