{
    "asset" : {
        "generator" : "Khronos glTF Blender I/O v3.4.50",
        "version" : "2.0"
    },
    "scene" : 0,
    "scenes" : [
        {
            "name" : "Scene",
            "nodes" : [
                0
            ]
        }
    ],
    "nodes" : [
        {
            "mesh" : 0,
            "name" : "Cube",
            "scale" : [
                0.1613195389509201,
                0.10584232956171036,
                0.1613195389509201
            ]
        }
    ],
    "materials" : [
        {
            "doubleSided" : true,
            "name" : "Material",
            "pbrMetallicRoughness" : {
                "baseColorFactor" : [
                    0.800000011920929,
                    0.800000011920929,
                    0.800000011920929,
                    1
                ],
                "metallicFactor" : 0,
                "roughnessFactor" : 0.4000000059604645
            }
        }
    ],
    "meshes" : [
        {
            "name" : "Cube",
            "primitives" : [
                {
                    "attributes" : {
                        "POSITION" : 0,
                        "TEXCOORD_0" : 1,
                        "NORMAL" : 2,
                        "TANGENT" : 3
                    },
                    "indices" : 4,
                    "material" : 0
                }
            ]
        }
    ],
    "accessors" : [
        {
            "bufferView" : 0,
            "componentType" : 5126,
            "count" : 1626,
            "max" : [
                4.8344902992248535,
                0.9343259334564209,
                4.834490776062012
            ],
            "min" : [
                -0.9246878623962402,
                -0.9343259930610657,
                -0.9246878623962402
            ],
            "type" : "VEC3"
        },
        {
            "bufferView" : 1,
            "componentType" : 5126,
            "count" : 1626,
            "type" : "VEC2"
        },
        {
            "bufferView" : 2,
            "componentType" : 5126,
            "count" : 1626,
            "type" : "VEC3"
        },
        {
            "bufferView" : 3,
            "componentType" : 5126,
            "count" : 1626,
            "type" : "VEC4"
        },
        {
            "bufferView" : 4,
            "componentType" : 5123,
            "count" : 8448,
            "type" : "SCALAR"
        }
    ],
    "bufferViews" : [
        {
            "buffer" : 0,
            "byteLength" : 19512,
            "byteOffset" : 0,
            "target" : 34962
        },
        {
            "buffer" : 0,
            "byteLength" : 13008,
            "byteOffset" : 19512,
            "target" : 34962
        },
        {
            "buffer" : 0,
            "byteLength" : 19512,
            "byteOffset" : 32520,
            "target" : 34962
        },
        {
            "buffer" : 0,
            "byteLength" : 26016,
            "byteOffset" : 52032,
            "target" : 34962
        },
        {
            "buffer" : 0,
            "byteLength" : 16896,
            "byteOffset" : 78048,
            "target" : 34963
        }
    ],
    "buffers" : [
        {
            "byteLength" : 94944,
            "uri" : "Boomerang-c7e5a59a89a43a9a4a3aece572785ead.bin"
        }
    ]
}
