{
    "asset" : {
        "generator" : "Khronos glTF Blender I/O v3.2.43",
        "version" : "2.0"
    },
    "scene" : 0,
    "scenes" : [
        {
            "name" : "Scene",
            "nodes" : [
                0
            ]
        }
    ],
    "nodes" : [
        {
            "mesh" : 0,
            "name" : "Cube"
        }
    ],
    "meshes" : [
        {
            "name" : "Cube.001",
            "primitives" : [
                {
                    "attributes" : {
                        "POSITION" : 0,
                        "NORMAL" : 1,
                        "TANGENT" : 2,
                        "TEXCOORD_0" : 3
                    },
                    "indices" : 4
                }
            ]
        }
    ],
    "accessors" : [
        {
            "bufferView" : 0,
            "componentType" : 5126,
            "count" : 1746,
            "max" : [
                1.0218151807785034,
                -0.08213421702384949,
                1
            ],
            "min" : [
                -1.0218151807785034,
                -0.9795200228691101,
                -1
            ],
            "type" : "VEC3"
        },
        {
            "bufferView" : 1,
            "componentType" : 5126,
            "count" : 1746,
            "type" : "VEC3"
        },
        {
            "bufferView" : 2,
            "componentType" : 5126,
            "count" : 1746,
            "type" : "VEC4"
        },
        {
            "bufferView" : 3,
            "componentType" : 5126,
            "count" : 1746,
            "type" : "VEC2"
        },
        {
            "bufferView" : 4,
            "componentType" : 5123,
            "count" : 2808,
            "type" : "SCALAR"
        }
    ],
    "bufferViews" : [
        {
            "buffer" : 0,
            "byteLength" : 20952,
            "byteOffset" : 0
        },
        {
            "buffer" : 0,
            "byteLength" : 20952,
            "byteOffset" : 20952
        },
        {
            "buffer" : 0,
            "byteLength" : 27936,
            "byteOffset" : 41904
        },
        {
            "buffer" : 0,
            "byteLength" : 13968,
            "byteOffset" : 69840
        },
        {
            "buffer" : 0,
            "byteLength" : 5616,
            "byteOffset" : 83808
        }
    ],
    "buffers" : [
        {
            "byteLength" : 89424,
            "uri" : "bridge-c02388e6903378745b47d733b0c0d575.bin"
        }
    ]
}
