{
    "asset" : {
        "generator" : "Khronos glTF Blender I/O v3.2.43",
        "version" : "2.0"
    },
    "scene" : 0,
    "scenes" : [
        {
            "name" : "Scene",
            "nodes" : [
                0,
                1
            ]
        }
    ],
    "nodes" : [
        {
            "mesh" : 0,
            "name" : "character",
            "rotation" : [
                0.7071068286895752,
                0,
                0,
                0.7071068286895752
            ],
            "scale" : [
                0.09263810515403748,
                0.09263810515403748,
                0.09263810515403748
            ]
        },
        {
            "mesh" : 1,
            "name" : "coat",
            "scale" : [
                1.0448442697525024,
                1.0448442697525024,
                1.1349587440490723
            ],
            "translation" : [
                0,
                -0.008639059960842133,
                0
            ]
        }
    ],
    "materials" : [
        {
            "doubleSided" : true,
            "name" : "default",
            "pbrMetallicRoughness" : {
                "baseColorFactor" : [
                    0.800000011920929,
                    0.800000011920929,
                    0.800000011920929,
                    1
                ],
                "metallicFactor" : 0,
                "roughnessFactor" : 0.5
            }
        },
        {
            "doubleSided" : true,
            "name" : "tunic",
            "pbrMetallicRoughness" : {
                "baseColorFactor" : [
                    0.031596653163433075,
                    0.5070686936378479,
                    0.036408472806215286,
                    1
                ],
                "metallicFactor" : 0,
                "roughnessFactor" : 0.5
            }
        },
        {
            "doubleSided" : true,
            "name" : "leather",
            "pbrMetallicRoughness" : {
                "baseColorFactor" : [
                    0.6151776313781738,
                    0.16825604438781738,
                    0.010589774698019028,
                    1
                ],
                "metallicFactor" : 0,
                "roughnessFactor" : 0.5
            }
        },
        {
            "doubleSided" : true,
            "name" : "hair",
            "pbrMetallicRoughness" : {
                "baseColorFactor" : [
                    0.13758409023284912,
                    0.09740506112575531,
                    0.05592985078692436,
                    1
                ],
                "metallicFactor" : 0,
                "roughnessFactor" : 0.5
            }
        },
        {
            "doubleSided" : true,
            "name" : "eye",
            "pbrMetallicRoughness" : {
                "baseColorFactor" : [
                    0,
                    0.23283132910728455,
                    0.8000000715255737,
                    1
                ],
                "metallicFactor" : 0,
                "roughnessFactor" : 0.5
            }
        },
        {
            "doubleSided" : true,
            "name" : "eyeblack",
            "pbrMetallicRoughness" : {
                "baseColorFactor" : [
                    0,
                    0,
                    0,
                    1
                ],
                "metallicFactor" : 0,
                "roughnessFactor" : 0.5
            }
        },
        {
            "doubleSided" : true,
            "name" : "metal",
            "pbrMetallicRoughness" : {
                "baseColorFactor" : [
                    0.13286374509334564,
                    0.13286374509334564,
                    0.13286374509334564,
                    1
                ],
                "metallicFactor" : 0.3949579894542694,
                "roughnessFactor" : 0.5
            }
        },
        {
            "doubleSided" : true,
            "name" : "coat",
            "pbrMetallicRoughness" : {
                "baseColorFactor" : [
                    0,
                    0,
                    0,
                    1
                ],
                "metallicFactor" : 0,
                "roughnessFactor" : 0.5
            }
        }
    ],
    "meshes" : [
        {
            "name" : "Plane",
            "primitives" : [
                {
                    "attributes" : {
                        "POSITION" : 0,
                        "NORMAL" : 1,
                        "TEXCOORD_0" : 2
                    },
                    "indices" : 3,
                    "material" : 0
                },
                {
                    "attributes" : {
                        "POSITION" : 4,
                        "NORMAL" : 5,
                        "TEXCOORD_0" : 6
                    },
                    "indices" : 7,
                    "material" : 1
                },
                {
                    "attributes" : {
                        "POSITION" : 8,
                        "NORMAL" : 9,
                        "TEXCOORD_0" : 10
                    },
                    "indices" : 11,
                    "material" : 2
                },
                {
                    "attributes" : {
                        "POSITION" : 12,
                        "NORMAL" : 13,
                        "TEXCOORD_0" : 14
                    },
                    "indices" : 15,
                    "material" : 3
                },
                {
                    "attributes" : {
                        "POSITION" : 16,
                        "NORMAL" : 17,
                        "TEXCOORD_0" : 18
                    },
                    "indices" : 19,
                    "material" : 4
                },
                {
                    "attributes" : {
                        "POSITION" : 20,
                        "NORMAL" : 21,
                        "TEXCOORD_0" : 22
                    },
                    "indices" : 23,
                    "material" : 5
                },
                {
                    "attributes" : {
                        "POSITION" : 24,
                        "NORMAL" : 25,
                        "TEXCOORD_0" : 26
                    },
                    "indices" : 27,
                    "material" : 6
                }
            ]
        },
        {
            "name" : "Plane.002",
            "primitives" : [
                {
                    "attributes" : {
                        "POSITION" : 28,
                        "NORMAL" : 29,
                        "TANGENT" : 30,
                        "TEXCOORD_0" : 31
                    },
                    "indices" : 32,
                    "material" : 7
                }
            ]
        }
    ],
    "accessors" : [
        {
            "bufferView" : 0,
            "componentType" : 5126,
            "count" : 4618,
            "max" : [
                4.887691020965576,
                3.0461502075195312,
                7.267816543579102
            ],
            "min" : [
                -4.887691020965576,
                -0.9066797494888306,
                -4.64751672744751
            ],
            "type" : "VEC3"
        },
        {
            "bufferView" : 1,
            "componentType" : 5126,
            "count" : 4618,
            "type" : "VEC3"
        },
        {
            "bufferView" : 2,
            "componentType" : 5126,
            "count" : 4618,
            "type" : "VEC2"
        },
        {
            "bufferView" : 3,
            "componentType" : 5123,
            "count" : 6714,
            "type" : "SCALAR"
        },
        {
            "bufferView" : 4,
            "componentType" : 5126,
            "count" : 1048,
            "max" : [
                3.3543970584869385,
                4.167074680328369,
                5.198599338531494
            ],
            "min" : [
                -3.3543970584869385,
                -2.6312143802642822,
                -1.5382953882217407
            ],
            "type" : "VEC3"
        },
        {
            "bufferView" : 5,
            "componentType" : 5126,
            "count" : 1048,
            "type" : "VEC3"
        },
        {
            "bufferView" : 6,
            "componentType" : 5126,
            "count" : 1048,
            "type" : "VEC2"
        },
        {
            "bufferView" : 7,
            "componentType" : 5123,
            "count" : 1500,
            "type" : "SCALAR"
        },
        {
            "bufferView" : 8,
            "componentType" : 5126,
            "count" : 1136,
            "max" : [
                6.451953411102295,
                3.8642728328704834,
                9.682134628295898
            ],
            "min" : [
                -6.451953411102295,
                -1.359100103378296,
                -0.1590370535850525
            ],
            "type" : "VEC3"
        },
        {
            "bufferView" : 9,
            "componentType" : 5126,
            "count" : 1136,
            "type" : "VEC3"
        },
        {
            "bufferView" : 10,
            "componentType" : 5126,
            "count" : 1136,
            "type" : "VEC2"
        },
        {
            "bufferView" : 11,
            "componentType" : 5123,
            "count" : 1656,
            "type" : "SCALAR"
        },
        {
            "bufferView" : 12,
            "componentType" : 5126,
            "count" : 218,
            "max" : [
                1.4413414001464844,
                2.473057270050049,
                -3.5411038398742676
            ],
            "min" : [
                -1.4413414001464844,
                -1.6002874374389648,
                -5.142646312713623
            ],
            "type" : "VEC3"
        },
        {
            "bufferView" : 13,
            "componentType" : 5126,
            "count" : 218,
            "type" : "VEC3"
        },
        {
            "bufferView" : 14,
            "componentType" : 5126,
            "count" : 218,
            "type" : "VEC2"
        },
        {
            "bufferView" : 15,
            "componentType" : 5123,
            "count" : 318,
            "type" : "SCALAR"
        },
        {
            "bufferView" : 16,
            "componentType" : 5126,
            "count" : 512,
            "max" : [
                0.6339449882507324,
                1.5298197269439697,
                -3.209977626800537
            ],
            "min" : [
                -0.6339449882507324,
                1.472075343132019,
                -3.652592897415161
            ],
            "type" : "VEC3"
        },
        {
            "bufferView" : 17,
            "componentType" : 5126,
            "count" : 512,
            "type" : "VEC3"
        },
        {
            "bufferView" : 18,
            "componentType" : 5126,
            "count" : 512,
            "type" : "VEC2"
        },
        {
            "bufferView" : 19,
            "componentType" : 5123,
            "count" : 768,
            "type" : "SCALAR"
        },
        {
            "bufferView" : 20,
            "componentType" : 5126,
            "count" : 192,
            "max" : [
                0.5262038111686707,
                1.53839910030365,
                -3.333113670349121
            ],
            "min" : [
                -0.5262038111686707,
                1.523986577987671,
                -3.5304834842681885
            ],
            "type" : "VEC3"
        },
        {
            "bufferView" : 21,
            "componentType" : 5126,
            "count" : 192,
            "type" : "VEC3"
        },
        {
            "bufferView" : 22,
            "componentType" : 5126,
            "count" : 192,
            "type" : "VEC2"
        },
        {
            "bufferView" : 23,
            "componentType" : 5123,
            "count" : 192,
            "type" : "SCALAR"
        },
        {
            "bufferView" : 24,
            "componentType" : 5126,
            "count" : 112,
            "max" : [
                0.654951274394989,
                2.7991762161254883,
                3.414454936981201
            ],
            "min" : [
                -0.654951274394989,
                2.4901459217071533,
                2.133782148361206
            ],
            "type" : "VEC3"
        },
        {
            "bufferView" : 25,
            "componentType" : 5126,
            "count" : 112,
            "type" : "VEC3"
        },
        {
            "bufferView" : 26,
            "componentType" : 5126,
            "count" : 112,
            "type" : "VEC2"
        },
        {
            "bufferView" : 27,
            "componentType" : 5123,
            "count" : 156,
            "type" : "SCALAR"
        },
        {
            "bufferView" : 28,
            "componentType" : 5126,
            "count" : 15744,
            "max" : [
                0.2997836768627167,
                0.4858227074146271,
                0.1666174829006195
            ],
            "min" : [
                -0.2997836768627167,
                -0.5460862517356873,
                -0.24863401055335999
            ],
            "type" : "VEC3"
        },
        {
            "bufferView" : 29,
            "componentType" : 5126,
            "count" : 15744,
            "type" : "VEC3"
        },
        {
            "bufferView" : 30,
            "componentType" : 5126,
            "count" : 15744,
            "type" : "VEC4"
        },
        {
            "bufferView" : 31,
            "componentType" : 5126,
            "count" : 15744,
            "type" : "VEC2"
        },
        {
            "bufferView" : 32,
            "componentType" : 5123,
            "count" : 23616,
            "type" : "SCALAR"
        }
    ],
    "bufferViews" : [
        {
            "buffer" : 0,
            "byteLength" : 55416,
            "byteOffset" : 0
        },
        {
            "buffer" : 0,
            "byteLength" : 55416,
            "byteOffset" : 55416
        },
        {
            "buffer" : 0,
            "byteLength" : 36944,
            "byteOffset" : 110832
        },
        {
            "buffer" : 0,
            "byteLength" : 13428,
            "byteOffset" : 147776
        },
        {
            "buffer" : 0,
            "byteLength" : 12576,
            "byteOffset" : 161204
        },
        {
            "buffer" : 0,
            "byteLength" : 12576,
            "byteOffset" : 173780
        },
        {
            "buffer" : 0,
            "byteLength" : 8384,
            "byteOffset" : 186356
        },
        {
            "buffer" : 0,
            "byteLength" : 3000,
            "byteOffset" : 194740
        },
        {
            "buffer" : 0,
            "byteLength" : 13632,
            "byteOffset" : 197740
        },
        {
            "buffer" : 0,
            "byteLength" : 13632,
            "byteOffset" : 211372
        },
        {
            "buffer" : 0,
            "byteLength" : 9088,
            "byteOffset" : 225004
        },
        {
            "buffer" : 0,
            "byteLength" : 3312,
            "byteOffset" : 234092
        },
        {
            "buffer" : 0,
            "byteLength" : 2616,
            "byteOffset" : 237404
        },
        {
            "buffer" : 0,
            "byteLength" : 2616,
            "byteOffset" : 240020
        },
        {
            "buffer" : 0,
            "byteLength" : 1744,
            "byteOffset" : 242636
        },
        {
            "buffer" : 0,
            "byteLength" : 636,
            "byteOffset" : 244380
        },
        {
            "buffer" : 0,
            "byteLength" : 6144,
            "byteOffset" : 245016
        },
        {
            "buffer" : 0,
            "byteLength" : 6144,
            "byteOffset" : 251160
        },
        {
            "buffer" : 0,
            "byteLength" : 4096,
            "byteOffset" : 257304
        },
        {
            "buffer" : 0,
            "byteLength" : 1536,
            "byteOffset" : 261400
        },
        {
            "buffer" : 0,
            "byteLength" : 2304,
            "byteOffset" : 262936
        },
        {
            "buffer" : 0,
            "byteLength" : 2304,
            "byteOffset" : 265240
        },
        {
            "buffer" : 0,
            "byteLength" : 1536,
            "byteOffset" : 267544
        },
        {
            "buffer" : 0,
            "byteLength" : 384,
            "byteOffset" : 269080
        },
        {
            "buffer" : 0,
            "byteLength" : 1344,
            "byteOffset" : 269464
        },
        {
            "buffer" : 0,
            "byteLength" : 1344,
            "byteOffset" : 270808
        },
        {
            "buffer" : 0,
            "byteLength" : 896,
            "byteOffset" : 272152
        },
        {
            "buffer" : 0,
            "byteLength" : 312,
            "byteOffset" : 273048
        },
        {
            "buffer" : 0,
            "byteLength" : 188928,
            "byteOffset" : 273360
        },
        {
            "buffer" : 0,
            "byteLength" : 188928,
            "byteOffset" : 462288
        },
        {
            "buffer" : 0,
            "byteLength" : 251904,
            "byteOffset" : 651216
        },
        {
            "buffer" : 0,
            "byteLength" : 125952,
            "byteOffset" : 903120
        },
        {
            "buffer" : 0,
            "byteLength" : 47232,
            "byteOffset" : 1029072
        }
    ],
    "buffers" : [
        {
            "byteLength" : 1076304,
            "uri" : "character-3aa07f44929f5e4062b44cf92a5c5c2b.bin"
        }
    ]
}
