{
    "asset" : {
        "generator" : "Khronos glTF Blender I/O v3.2.43",
        "version" : "2.0"
    },
    "scene" : 0,
    "scenes" : [
        {
            "name" : "Scene",
            "nodes" : [
                0
            ]
        }
    ],
    "nodes" : [
        {
            "mesh" : 0,
            "name" : "destructible_wall_merged"
        }
    ],
    "materials" : [
        {
            "doubleSided" : true,
            "name" : "Material",
            "pbrMetallicRoughness" : {
                "baseColorFactor" : [
                    0.800000011920929,
                    0.800000011920929,
                    0.800000011920929,
                    1
                ],
                "metallicFactor" : 0,
                "roughnessFactor" : 0.4000000059604645
            }
        }
    ],
    "meshes" : [
        {
            "name" : "Cube_cell.005",
            "primitives" : [
                {
                    "attributes" : {
                        "POSITION" : 0,
                        "NORMAL" : 1,
                        "TEXCOORD_0" : 2
                    },
                    "indices" : 3,
                    "material" : 0
                }
            ]
        }
    ],
    "accessors" : [
        {
            "bufferView" : 0,
            "componentType" : 5126,
            "count" : 2328,
            "max" : [
                1.0068081617355347,
                0.9985905289649963,
                1.0054621696472168
            ],
            "min" : [
                -0.9931918382644653,
                -1.0014095306396484,
                -0.9945379495620728
            ],
            "type" : "VEC3"
        },
        {
            "bufferView" : 1,
            "componentType" : 5126,
            "count" : 2328,
            "type" : "VEC3"
        },
        {
            "bufferView" : 2,
            "componentType" : 5126,
            "count" : 2328,
            "type" : "VEC2"
        },
        {
            "bufferView" : 3,
            "componentType" : 5123,
            "count" : 3534,
            "type" : "SCALAR"
        }
    ],
    "bufferViews" : [
        {
            "buffer" : 0,
            "byteLength" : 27936,
            "byteOffset" : 0
        },
        {
            "buffer" : 0,
            "byteLength" : 27936,
            "byteOffset" : 27936
        },
        {
            "buffer" : 0,
            "byteLength" : 18624,
            "byteOffset" : 55872
        },
        {
            "buffer" : 0,
            "byteLength" : 7068,
            "byteOffset" : 74496
        }
    ],
    "buffers" : [
        {
            "byteLength" : 81564,
            "uri" : "destructible_wall_merged-2223aa28c9f659e19b542542aac25bf1.bin"
        }
    ]
}
