{
    "asset" : {
        "generator" : "Khronos glTF Blender I/O v3.4.50",
        "version" : "2.0"
    },
    "extensionsUsed" : [
        "KHR_materials_specular",
        "KHR_materials_ior"
    ],
    "scene" : 0,
    "scenes" : [
        {
            "name" : "Scene",
            "nodes" : [
                0
            ]
        }
    ],
    "nodes" : [
        {
            "mesh" : 0,
            "name" : "Cylinder.002"
        }
    ],
    "materials" : [
        {
            "doubleSided" : true,
            "extensions" : {
                "KHR_materials_specular" : {
                    "specularColorFactor" : [
                        0,
                        0,
                        0
                    ]
                },
                "KHR_materials_ior" : {
                    "ior" : 1.4500000476837158
                }
            },
            "name" : "wood",
            "pbrMetallicRoughness" : {
                "baseColorFactor" : [
                    0.28101006150245667,
                    0.12610015273094177,
                    0.06324848532676697,
                    1
                ],
                "metallicFactor" : 0,
                "roughnessFactor" : 0.78125
            }
        },
        {
            "doubleSided" : true,
            "name" : "band",
            "pbrMetallicRoughness" : {
                "baseColorFactor" : [
                    0.771774411201477,
                    0.8000000715255737,
                    0,
                    1
                ],
                "metallicFactor" : 0,
                "roughnessFactor" : 0.5
            }
        }
    ],
    "meshes" : [
        {
            "name" : "Cylinder.002",
            "primitives" : [
                {
                    "attributes" : {
                        "POSITION" : 0,
                        "TEXCOORD_0" : 1,
                        "NORMAL" : 2
                    },
                    "indices" : 3,
                    "material" : 0
                },
                {
                    "attributes" : {
                        "POSITION" : 4,
                        "TEXCOORD_0" : 5,
                        "NORMAL" : 6
                    },
                    "indices" : 7,
                    "material" : 1
                }
            ]
        }
    ],
    "accessors" : [
        {
            "bufferView" : 0,
            "componentType" : 5126,
            "count" : 1009,
            "max" : [
                0.1283426135778427,
                1.100000023841858,
                1.0928077697753906
            ],
            "min" : [
                -0.1283426135778427,
                -1,
                -1.0928077697753906
            ],
            "type" : "VEC3"
        },
        {
            "bufferView" : 1,
            "componentType" : 5126,
            "count" : 1009,
            "type" : "VEC2"
        },
        {
            "bufferView" : 2,
            "componentType" : 5126,
            "count" : 1009,
            "type" : "VEC3"
        },
        {
            "bufferView" : 3,
            "componentType" : 5123,
            "count" : 3180,
            "type" : "SCALAR"
        },
        {
            "bufferView" : 4,
            "componentType" : 5126,
            "count" : 7644,
            "max" : [
                0.1633683741092682,
                0.8947188258171082,
                1.0637140274047852
            ],
            "min" : [
                -0.19493670761585236,
                -0.8136271238327026,
                -1.0408966541290283
            ],
            "type" : "VEC3"
        },
        {
            "bufferView" : 5,
            "componentType" : 5126,
            "count" : 7644,
            "type" : "VEC2"
        },
        {
            "bufferView" : 6,
            "componentType" : 5126,
            "count" : 7644,
            "type" : "VEC3"
        },
        {
            "bufferView" : 7,
            "componentType" : 5123,
            "count" : 41472,
            "type" : "SCALAR"
        }
    ],
    "bufferViews" : [
        {
            "buffer" : 0,
            "byteLength" : 12108,
            "byteOffset" : 0,
            "target" : 34962
        },
        {
            "buffer" : 0,
            "byteLength" : 8072,
            "byteOffset" : 12108,
            "target" : 34962
        },
        {
            "buffer" : 0,
            "byteLength" : 12108,
            "byteOffset" : 20180,
            "target" : 34962
        },
        {
            "buffer" : 0,
            "byteLength" : 6360,
            "byteOffset" : 32288,
            "target" : 34963
        },
        {
            "buffer" : 0,
            "byteLength" : 91728,
            "byteOffset" : 38648,
            "target" : 34962
        },
        {
            "buffer" : 0,
            "byteLength" : 61152,
            "byteOffset" : 130376,
            "target" : 34962
        },
        {
            "buffer" : 0,
            "byteLength" : 91728,
            "byteOffset" : 191528,
            "target" : 34962
        },
        {
            "buffer" : 0,
            "byteLength" : 82944,
            "byteOffset" : 283256,
            "target" : 34963
        }
    ],
    "buffers" : [
        {
            "byteLength" : 366200,
            "uri" : "ladder-4901f7c22678f94d8139a29294e3f995.bin"
        }
    ]
}
