{
    "asset" : {
        "generator" : "Khronos glTF Blender I/O v3.2.43",
        "version" : "2.0"
    },
    "scene" : 0,
    "scenes" : [
        {
            "name" : "Scene",
            "nodes" : [
                0
            ]
        }
    ],
    "nodes" : [
        {
            "mesh" : 0,
            "name" : "lever_merged",
            "scale" : [
                0.30160272121429443,
                0.30160272121429443,
                0.30160272121429443
            ],
            "translation" : [
                0,
                2.200000047683716,
                0
            ]
        }
    ],
    "materials" : [
        {
            "doubleSided" : true,
            "name" : "knob",
            "pbrMetallicRoughness" : {
                "baseColorFactor" : [
                    0,
                    0.0019492254359647632,
                    0.8000000715255737,
                    1
                ],
                "metallicFactor" : 0,
                "roughnessFactor" : 0.5
            }
        },
        {
            "doubleSided" : true,
            "name" : "staff",
            "pbrMetallicRoughness" : {
                "baseColorFactor" : [
                    0.8000000715255737,
                    0.23843678832054138,
                    0.08624522387981415,
                    1
                ],
                "metallicFactor" : 0,
                "roughnessFactor" : 0.5
            }
        },
        {
            "doubleSided" : true,
            "name" : "Material",
            "pbrMetallicRoughness" : {
                "baseColorFactor" : [
                    0.800000011920929,
                    0.800000011920929,
                    0.800000011920929,
                    1
                ],
                "metallicFactor" : 0,
                "roughnessFactor" : 0.4000000059604645
            }
        }
    ],
    "meshes" : [
        {
            "name" : "Sphere",
            "primitives" : [
                {
                    "attributes" : {
                        "POSITION" : 0,
                        "NORMAL" : 1,
                        "TEXCOORD_0" : 2
                    },
                    "indices" : 3,
                    "material" : 0
                },
                {
                    "attributes" : {
                        "POSITION" : 4,
                        "NORMAL" : 5,
                        "TEXCOORD_0" : 6
                    },
                    "indices" : 7,
                    "material" : 1
                },
                {
                    "attributes" : {
                        "POSITION" : 8,
                        "NORMAL" : 9,
                        "TEXCOORD_0" : 10
                    },
                    "indices" : 11,
                    "material" : 2
                }
            ]
        }
    ],
    "accessors" : [
        {
            "bufferView" : 0,
            "componentType" : 5126,
            "count" : 559,
            "max" : [
                0.9999997019767761,
                0.33783596754074097,
                0.9999994039535522
            ],
            "min" : [
                -0.9999990463256836,
                -1.6621640920639038,
                -0.9999987483024597
            ],
            "type" : "VEC3"
        },
        {
            "bufferView" : 1,
            "componentType" : 5126,
            "count" : 559,
            "type" : "VEC3"
        },
        {
            "bufferView" : 2,
            "componentType" : 5126,
            "count" : 559,
            "type" : "VEC2"
        },
        {
            "bufferView" : 3,
            "componentType" : 5123,
            "count" : 2880,
            "type" : "SCALAR"
        },
        {
            "bufferView" : 4,
            "componentType" : 5126,
            "count" : 196,
            "max" : [
                0.37197303771972656,
                0.6855337023735046,
                0.37197303771972656
            ],
            "min" : [
                -0.37197303771972656,
                -8.657302856445312,
                -0.37197303771972656
            ],
            "type" : "VEC3"
        },
        {
            "bufferView" : 5,
            "componentType" : 5126,
            "count" : 196,
            "type" : "VEC3"
        },
        {
            "bufferView" : 6,
            "componentType" : 5126,
            "count" : 196,
            "type" : "VEC2"
        },
        {
            "bufferView" : 7,
            "componentType" : 5123,
            "count" : 756,
            "type" : "SCALAR"
        },
        {
            "bufferView" : 8,
            "componentType" : 5126,
            "count" : 128,
            "max" : [
                1.717344880104065,
                -5.987401008605957,
                3.315620183944702
            ],
            "min" : [
                -1.717344880104065,
                -10.606668472290039,
                -3.315620183944702
            ],
            "type" : "VEC3"
        },
        {
            "bufferView" : 9,
            "componentType" : 5126,
            "count" : 128,
            "type" : "VEC3"
        },
        {
            "bufferView" : 10,
            "componentType" : 5126,
            "count" : 128,
            "type" : "VEC2"
        },
        {
            "bufferView" : 11,
            "componentType" : 5123,
            "count" : 228,
            "type" : "SCALAR"
        }
    ],
    "bufferViews" : [
        {
            "buffer" : 0,
            "byteLength" : 6708,
            "byteOffset" : 0
        },
        {
            "buffer" : 0,
            "byteLength" : 6708,
            "byteOffset" : 6708
        },
        {
            "buffer" : 0,
            "byteLength" : 4472,
            "byteOffset" : 13416
        },
        {
            "buffer" : 0,
            "byteLength" : 5760,
            "byteOffset" : 17888
        },
        {
            "buffer" : 0,
            "byteLength" : 2352,
            "byteOffset" : 23648
        },
        {
            "buffer" : 0,
            "byteLength" : 2352,
            "byteOffset" : 26000
        },
        {
            "buffer" : 0,
            "byteLength" : 1568,
            "byteOffset" : 28352
        },
        {
            "buffer" : 0,
            "byteLength" : 1512,
            "byteOffset" : 29920
        },
        {
            "buffer" : 0,
            "byteLength" : 1536,
            "byteOffset" : 31432
        },
        {
            "buffer" : 0,
            "byteLength" : 1536,
            "byteOffset" : 32968
        },
        {
            "buffer" : 0,
            "byteLength" : 1024,
            "byteOffset" : 34504
        },
        {
            "buffer" : 0,
            "byteLength" : 456,
            "byteOffset" : 35528
        }
    ],
    "buffers" : [
        {
            "byteLength" : 35984,
            "uri" : "lever_merged-341df5c675b499dcd636f29b4738da73.bin"
        }
    ]
}
