{
    "asset" : {
        "generator" : "Khronos glTF Blender I/O v3.2.43",
        "version" : "2.0"
    },
    "scene" : 0,
    "scenes" : [
        {
            "name" : "Scene",
            "nodes" : [
                0,
                1,
                2,
                3,
                4,
                5,
                6
            ]
        }
    ],
    "nodes" : [
        {
            "mesh" : 0,
            "name" : "Cube.001",
            "rotation" : [
                0,
                0.7071068286895752,
                0,
                0.7071068286895752
            ]
        },
        {
            "mesh" : 1,
            "name" : "Cube",
            "rotation" : [
                0,
                0.7075538039207458,
                0,
                0.7066594958305359
            ]
        },
        {
            "mesh" : 2,
            "name" : "Sphere",
            "rotation" : [
                0,
                0.7071068286895752,
                0,
                0.7071068286895752
            ]
        },
        {
            "mesh" : 3,
            "name" : "Cube.002",
            "rotation" : [
                0,
                0.7075538039207458,
                0,
                0.7066594958305359
            ]
        },
        {
            "mesh" : 4,
            "name" : "Cube.003",
            "rotation" : [
                0,
                0.7075538039207458,
                0,
                0.7066594958305359
            ]
        },
        {
            "mesh" : 5,
            "name" : "Plane",
            "rotation" : [
                0,
                0.7071068286895752,
                0,
                0.7071068286895752
            ]
        },
        {
            "mesh" : 6,
            "name" : "Torus",
            "rotation" : [
                0,
                0.7075538039207458,
                0,
                0.7066594958305359
            ]
        }
    ],
    "materials" : [
        {
            "doubleSided" : true,
            "name" : "skin",
            "pbrMetallicRoughness" : {
                "baseColorFactor" : [
                    0,
                    0.28100916743278503,
                    0.056824494153261185,
                    1
                ],
                "metallicFactor" : 0,
                "roughnessFactor" : 0.4000000059604645
            }
        },
        {
            "doubleSided" : true,
            "name" : "hair",
            "pbrMetallicRoughness" : {
                "baseColorFactor" : [
                    0.18446610867977142,
                    0,
                    0.0652092695236206,
                    1
                ],
                "metallicFactor" : 0,
                "roughnessFactor" : 0.5
            }
        },
        {
            "doubleSided" : true,
            "name" : "eye",
            "pbrMetallicRoughness" : {
                "baseColorFactor" : [
                    0.8000000715255737,
                    0.7783952951431274,
                    0.010700984857976437,
                    1
                ],
                "metallicFactor" : 0,
                "roughnessFactor" : 0.5
            }
        },
        {
            "doubleSided" : true,
            "name" : "pupil",
            "pbrMetallicRoughness" : {
                "baseColorFactor" : [
                    0,
                    0,
                    0,
                    1
                ],
                "metallicFactor" : 0,
                "roughnessFactor" : 0.5
            }
        },
        {
            "doubleSided" : true,
            "name" : "jacket",
            "pbrMetallicRoughness" : {
                "baseColorFactor" : [
                    0.2330077439546585,
                    0.03258323669433594,
                    0,
                    1
                ],
                "metallicFactor" : 0,
                "roughnessFactor" : 0.5
            }
        },
        {
            "doubleSided" : true,
            "name" : "earring",
            "pbrMetallicRoughness" : {
                "baseColorFactor" : [
                    0.7531933784484863,
                    0.8000000715255737,
                    0,
                    1
                ],
                "metallicFactor" : 0.7044335007667542,
                "roughnessFactor" : 0.5
            }
        }
    ],
    "meshes" : [
        {
            "name" : "Cube.001",
            "primitives" : [
                {
                    "attributes" : {
                        "POSITION" : 0,
                        "NORMAL" : 1,
                        "TANGENT" : 2,
                        "TEXCOORD_0" : 3
                    },
                    "indices" : 4,
                    "material" : 0
                }
            ]
        },
        {
            "name" : "Cube.002",
            "primitives" : [
                {
                    "attributes" : {
                        "POSITION" : 5,
                        "NORMAL" : 6,
                        "TANGENT" : 7,
                        "TEXCOORD_0" : 8
                    },
                    "indices" : 9,
                    "material" : 1
                }
            ]
        },
        {
            "name" : "Sphere",
            "primitives" : [
                {
                    "attributes" : {
                        "POSITION" : 10,
                        "NORMAL" : 11,
                        "TANGENT" : 12,
                        "TEXCOORD_0" : 13
                    },
                    "indices" : 14,
                    "material" : 2
                },
                {
                    "attributes" : {
                        "POSITION" : 15,
                        "NORMAL" : 16,
                        "TANGENT" : 17,
                        "TEXCOORD_0" : 18
                    },
                    "indices" : 19,
                    "material" : 3
                }
            ]
        },
        {
            "name" : "Cube",
            "primitives" : [
                {
                    "attributes" : {
                        "POSITION" : 20,
                        "NORMAL" : 21,
                        "TANGENT" : 22,
                        "TEXCOORD_0" : 23
                    },
                    "indices" : 24
                }
            ]
        },
        {
            "name" : "Cube.003",
            "primitives" : [
                {
                    "attributes" : {
                        "POSITION" : 25,
                        "NORMAL" : 26,
                        "TANGENT" : 27,
                        "TEXCOORD_0" : 28
                    },
                    "indices" : 29,
                    "material" : 1
                }
            ]
        },
        {
            "name" : "Plane",
            "primitives" : [
                {
                    "attributes" : {
                        "POSITION" : 30,
                        "NORMAL" : 31,
                        "TANGENT" : 32,
                        "TEXCOORD_0" : 33
                    },
                    "indices" : 34,
                    "material" : 4
                }
            ]
        },
        {
            "name" : "Torus",
            "primitives" : [
                {
                    "attributes" : {
                        "POSITION" : 35,
                        "NORMAL" : 36,
                        "TANGENT" : 37,
                        "TEXCOORD_0" : 38
                    },
                    "indices" : 39,
                    "material" : 5
                }
            ]
        }
    ],
    "accessors" : [
        {
            "bufferView" : 0,
            "componentType" : 5126,
            "count" : 17173,
            "max" : [
                1.3505094051361084,
                5.170794486999512,
                2.2926628589630127
            ],
            "min" : [
                -1.0138756036758423,
                -0.12421101331710815,
                -2.2926626205444336
            ],
            "type" : "VEC3"
        },
        {
            "bufferView" : 1,
            "componentType" : 5126,
            "count" : 17173,
            "type" : "VEC3"
        },
        {
            "bufferView" : 2,
            "componentType" : 5126,
            "count" : 17173,
            "type" : "VEC4"
        },
        {
            "bufferView" : 3,
            "componentType" : 5126,
            "count" : 17173,
            "type" : "VEC2"
        },
        {
            "bufferView" : 4,
            "componentType" : 5123,
            "count" : 87552,
            "type" : "SCALAR"
        },
        {
            "bufferView" : 5,
            "componentType" : 5126,
            "count" : 72,
            "max" : [
                0.8560099601745605,
                5.218385219573975,
                0.16211944818496704
            ],
            "min" : [
                -0.3577618896961212,
                3.9636483192443848,
                -0.16211944818496704
            ],
            "type" : "VEC3"
        },
        {
            "bufferView" : 6,
            "componentType" : 5126,
            "count" : 72,
            "type" : "VEC3"
        },
        {
            "bufferView" : 7,
            "componentType" : 5126,
            "count" : 72,
            "type" : "VEC4"
        },
        {
            "bufferView" : 8,
            "componentType" : 5126,
            "count" : 72,
            "type" : "VEC2"
        },
        {
            "bufferView" : 9,
            "componentType" : 5123,
            "count" : 108,
            "type" : "SCALAR"
        },
        {
            "bufferView" : 10,
            "componentType" : 5126,
            "count" : 988,
            "max" : [
                -0.22037291526794434,
                4.6467509269714355,
                0.4007683992385864
            ],
            "min" : [
                -0.5779491662979126,
                4.277379989624023,
                -0.4007683992385864
            ],
            "type" : "VEC3"
        },
        {
            "bufferView" : 11,
            "componentType" : 5126,
            "count" : 988,
            "type" : "VEC3"
        },
        {
            "bufferView" : 12,
            "componentType" : 5126,
            "count" : 988,
            "type" : "VEC4"
        },
        {
            "bufferView" : 13,
            "componentType" : 5126,
            "count" : 988,
            "type" : "VEC2"
        },
        {
            "bufferView" : 14,
            "componentType" : 5123,
            "count" : 5184,
            "type" : "SCALAR"
        },
        {
            "bufferView" : 15,
            "componentType" : 5126,
            "count" : 262,
            "max" : [
                -0.5490885972976685,
                4.583465576171875,
                0.30697038769721985
            ],
            "min" : [
                -0.5949484705924988,
                4.387289524078369,
                -0.30697038769721985
            ],
            "type" : "VEC3"
        },
        {
            "bufferView" : 16,
            "componentType" : 5126,
            "count" : 262,
            "type" : "VEC3"
        },
        {
            "bufferView" : 17,
            "componentType" : 5126,
            "count" : 262,
            "type" : "VEC4"
        },
        {
            "bufferView" : 18,
            "componentType" : 5126,
            "count" : 262,
            "type" : "VEC2"
        },
        {
            "bufferView" : 19,
            "componentType" : 5123,
            "count" : 960,
            "type" : "SCALAR"
        },
        {
            "bufferView" : 20,
            "componentType" : 5126,
            "count" : 48,
            "max" : [
                -0.8313513398170471,
                3.8618993759155273,
                0.2648952007293701
            ],
            "min" : [
                -0.9183709621429443,
                3.7045135498046875,
                -0.2648952007293701
            ],
            "type" : "VEC3"
        },
        {
            "bufferView" : 21,
            "componentType" : 5126,
            "count" : 48,
            "type" : "VEC3"
        },
        {
            "bufferView" : 22,
            "componentType" : 5126,
            "count" : 48,
            "type" : "VEC4"
        },
        {
            "bufferView" : 23,
            "componentType" : 5126,
            "count" : 48,
            "type" : "VEC2"
        },
        {
            "bufferView" : 24,
            "componentType" : 5123,
            "count" : 72,
            "type" : "SCALAR"
        },
        {
            "bufferView" : 25,
            "componentType" : 5126,
            "count" : 38,
            "max" : [
                -0.35104429721832275,
                4.774237155914307,
                0.3290245831012726
            ],
            "min" : [
                -0.5598999261856079,
                4.628441333770752,
                -0.3290245831012726
            ],
            "type" : "VEC3"
        },
        {
            "bufferView" : 26,
            "componentType" : 5126,
            "count" : 38,
            "type" : "VEC3"
        },
        {
            "bufferView" : 27,
            "componentType" : 5126,
            "count" : 38,
            "type" : "VEC4"
        },
        {
            "bufferView" : 28,
            "componentType" : 5126,
            "count" : 38,
            "type" : "VEC2"
        },
        {
            "bufferView" : 29,
            "componentType" : 5123,
            "count" : 60,
            "type" : "SCALAR"
        },
        {
            "bufferView" : 30,
            "componentType" : 5126,
            "count" : 1372,
            "max" : [
                1.0462225675582886,
                3.322127103805542,
                0.8611863851547241
            ],
            "min" : [
                -0.8489298820495605,
                1.801858901977539,
                -0.8611863255500793
            ],
            "type" : "VEC3"
        },
        {
            "bufferView" : 31,
            "componentType" : 5126,
            "count" : 1372,
            "type" : "VEC3"
        },
        {
            "bufferView" : 32,
            "componentType" : 5126,
            "count" : 1372,
            "type" : "VEC4"
        },
        {
            "bufferView" : 33,
            "componentType" : 5126,
            "count" : 1372,
            "type" : "VEC2"
        },
        {
            "bufferView" : 34,
            "componentType" : 5123,
            "count" : 6096,
            "type" : "SCALAR"
        },
        {
            "bufferView" : 35,
            "componentType" : 5126,
            "count" : 637,
            "max" : [
                0.38787734508514404,
                4.835428237915039,
                1.5098650455474854
            ],
            "min" : [
                -0.12376680225133896,
                4.418703556060791,
                1.1485416889190674
            ],
            "type" : "VEC3"
        },
        {
            "bufferView" : 36,
            "componentType" : 5126,
            "count" : 637,
            "type" : "VEC3"
        },
        {
            "bufferView" : 37,
            "componentType" : 5126,
            "count" : 637,
            "type" : "VEC4"
        },
        {
            "bufferView" : 38,
            "componentType" : 5126,
            "count" : 637,
            "type" : "VEC2"
        },
        {
            "bufferView" : 39,
            "componentType" : 5123,
            "count" : 3456,
            "type" : "SCALAR"
        }
    ],
    "bufferViews" : [
        {
            "buffer" : 0,
            "byteLength" : 206076,
            "byteOffset" : 0
        },
        {
            "buffer" : 0,
            "byteLength" : 206076,
            "byteOffset" : 206076
        },
        {
            "buffer" : 0,
            "byteLength" : 274768,
            "byteOffset" : 412152
        },
        {
            "buffer" : 0,
            "byteLength" : 137384,
            "byteOffset" : 686920
        },
        {
            "buffer" : 0,
            "byteLength" : 175104,
            "byteOffset" : 824304
        },
        {
            "buffer" : 0,
            "byteLength" : 864,
            "byteOffset" : 999408
        },
        {
            "buffer" : 0,
            "byteLength" : 864,
            "byteOffset" : 1000272
        },
        {
            "buffer" : 0,
            "byteLength" : 1152,
            "byteOffset" : 1001136
        },
        {
            "buffer" : 0,
            "byteLength" : 576,
            "byteOffset" : 1002288
        },
        {
            "buffer" : 0,
            "byteLength" : 216,
            "byteOffset" : 1002864
        },
        {
            "buffer" : 0,
            "byteLength" : 11856,
            "byteOffset" : 1003080
        },
        {
            "buffer" : 0,
            "byteLength" : 11856,
            "byteOffset" : 1014936
        },
        {
            "buffer" : 0,
            "byteLength" : 15808,
            "byteOffset" : 1026792
        },
        {
            "buffer" : 0,
            "byteLength" : 7904,
            "byteOffset" : 1042600
        },
        {
            "buffer" : 0,
            "byteLength" : 10368,
            "byteOffset" : 1050504
        },
        {
            "buffer" : 0,
            "byteLength" : 3144,
            "byteOffset" : 1060872
        },
        {
            "buffer" : 0,
            "byteLength" : 3144,
            "byteOffset" : 1064016
        },
        {
            "buffer" : 0,
            "byteLength" : 4192,
            "byteOffset" : 1067160
        },
        {
            "buffer" : 0,
            "byteLength" : 2096,
            "byteOffset" : 1071352
        },
        {
            "buffer" : 0,
            "byteLength" : 1920,
            "byteOffset" : 1073448
        },
        {
            "buffer" : 0,
            "byteLength" : 576,
            "byteOffset" : 1075368
        },
        {
            "buffer" : 0,
            "byteLength" : 576,
            "byteOffset" : 1075944
        },
        {
            "buffer" : 0,
            "byteLength" : 768,
            "byteOffset" : 1076520
        },
        {
            "buffer" : 0,
            "byteLength" : 384,
            "byteOffset" : 1077288
        },
        {
            "buffer" : 0,
            "byteLength" : 144,
            "byteOffset" : 1077672
        },
        {
            "buffer" : 0,
            "byteLength" : 456,
            "byteOffset" : 1077816
        },
        {
            "buffer" : 0,
            "byteLength" : 456,
            "byteOffset" : 1078272
        },
        {
            "buffer" : 0,
            "byteLength" : 608,
            "byteOffset" : 1078728
        },
        {
            "buffer" : 0,
            "byteLength" : 304,
            "byteOffset" : 1079336
        },
        {
            "buffer" : 0,
            "byteLength" : 120,
            "byteOffset" : 1079640
        },
        {
            "buffer" : 0,
            "byteLength" : 16464,
            "byteOffset" : 1079760
        },
        {
            "buffer" : 0,
            "byteLength" : 16464,
            "byteOffset" : 1096224
        },
        {
            "buffer" : 0,
            "byteLength" : 21952,
            "byteOffset" : 1112688
        },
        {
            "buffer" : 0,
            "byteLength" : 10976,
            "byteOffset" : 1134640
        },
        {
            "buffer" : 0,
            "byteLength" : 12192,
            "byteOffset" : 1145616
        },
        {
            "buffer" : 0,
            "byteLength" : 7644,
            "byteOffset" : 1157808
        },
        {
            "buffer" : 0,
            "byteLength" : 7644,
            "byteOffset" : 1165452
        },
        {
            "buffer" : 0,
            "byteLength" : 10192,
            "byteOffset" : 1173096
        },
        {
            "buffer" : 0,
            "byteLength" : 5096,
            "byteOffset" : 1183288
        },
        {
            "buffer" : 0,
            "byteLength" : 6912,
            "byteOffset" : 1188384
        }
    ],
    "buffers" : [
        {
            "byteLength" : 1195296,
            "uri" : "ribo_base-5457ced7ab365c91260456fadc9394a3.bin"
        }
    ]
}
