{
    "asset" : {
        "generator" : "Khronos glTF Blender I/O v3.2.43",
        "version" : "2.0"
    },
    "scene" : 0,
    "scenes" : [
        {
            "name" : "Scene",
            "nodes" : [
                0
            ]
        }
    ],
    "nodes" : [
        {
            "mesh" : 0,
            "name" : "Cube"
        }
    ],
    "materials" : [
        {
            "doubleSided" : true,
            "name" : "Material",
            "pbrMetallicRoughness" : {
                "baseColorFactor" : [
                    0.800000011920929,
                    0.800000011920929,
                    0.800000011920929,
                    1
                ],
                "metallicFactor" : 0,
                "roughnessFactor" : 0.4000000059604645
            }
        }
    ],
    "meshes" : [
        {
            "name" : "Cube",
            "primitives" : [
                {
                    "attributes" : {
                        "POSITION" : 0,
                        "NORMAL" : 1,
                        "TANGENT" : 2,
                        "TEXCOORD_0" : 3
                    },
                    "indices" : 4,
                    "material" : 0
                }
            ]
        }
    ],
    "accessors" : [
        {
            "bufferView" : 0,
            "componentType" : 5126,
            "count" : 302,
            "max" : [
                1.6533839702606201,
                1.7482073307037354,
                1.756630539894104
            ],
            "min" : [
                -1.6457080841064453,
                -1.4183651208877563,
                -1.550150990486145
            ],
            "type" : "VEC3"
        },
        {
            "bufferView" : 1,
            "componentType" : 5126,
            "count" : 302,
            "type" : "VEC3"
        },
        {
            "bufferView" : 2,
            "componentType" : 5126,
            "count" : 302,
            "type" : "VEC4"
        },
        {
            "bufferView" : 3,
            "componentType" : 5126,
            "count" : 302,
            "type" : "VEC2"
        },
        {
            "bufferView" : 4,
            "componentType" : 5123,
            "count" : 450,
            "type" : "SCALAR"
        }
    ],
    "bufferViews" : [
        {
            "buffer" : 0,
            "byteLength" : 3624,
            "byteOffset" : 0
        },
        {
            "buffer" : 0,
            "byteLength" : 3624,
            "byteOffset" : 3624
        },
        {
            "buffer" : 0,
            "byteLength" : 4832,
            "byteOffset" : 7248
        },
        {
            "buffer" : 0,
            "byteLength" : 2416,
            "byteOffset" : 12080
        },
        {
            "buffer" : 0,
            "byteLength" : 900,
            "byteOffset" : 14496
        }
    ],
    "buffers" : [
        {
            "byteLength" : 15396,
            "uri" : "rock-c98e85884048d4211fa9b7a404eeffe6.bin"
        }
    ]
}
