{
    "asset" : {
        "generator" : "Khronos glTF Blender I/O v3.2.43",
        "version" : "2.0"
    },
    "scene" : 0,
    "scenes" : [
        {
            "name" : "Scene",
            "nodes" : [
                0
            ]
        }
    ],
    "nodes" : [
        {
            "mesh" : 0,
            "name" : "Sign",
            "scale" : [
                0.146370530128479,
                0.146370530128479,
                0.146370530128479
            ]
        }
    ],
    "materials" : [
        {
            "doubleSided" : true,
            "name" : "Material",
            "pbrMetallicRoughness" : {
                "baseColorFactor" : [
                    0.800000011920929,
                    0.800000011920929,
                    0.800000011920929,
                    1
                ],
                "metallicFactor" : 0,
                "roughnessFactor" : 0.4000000059604645
            }
        }
    ],
    "meshes" : [
        {
            "name" : "Cube",
            "primitives" : [
                {
                    "attributes" : {
                        "POSITION" : 0,
                        "NORMAL" : 1,
                        "TEXCOORD_0" : 2
                    },
                    "indices" : 3,
                    "material" : 0
                }
            ]
        }
    ],
    "accessors" : [
        {
            "bufferView" : 0,
            "componentType" : 5126,
            "count" : 530,
            "max" : [
                2.57495379447937,
                17.791210174560547,
                6.781441688537598
            ],
            "min" : [
                -1.5662548542022705,
                -1,
                -5.591142654418945
            ],
            "type" : "VEC3"
        },
        {
            "bufferView" : 1,
            "componentType" : 5126,
            "count" : 530,
            "type" : "VEC3"
        },
        {
            "bufferView" : 2,
            "componentType" : 5126,
            "count" : 530,
            "type" : "VEC2"
        },
        {
            "bufferView" : 3,
            "componentType" : 5123,
            "count" : 1152,
            "type" : "SCALAR"
        }
    ],
    "bufferViews" : [
        {
            "buffer" : 0,
            "byteLength" : 6360,
            "byteOffset" : 0
        },
        {
            "buffer" : 0,
            "byteLength" : 6360,
            "byteOffset" : 6360
        },
        {
            "buffer" : 0,
            "byteLength" : 4240,
            "byteOffset" : 12720
        },
        {
            "buffer" : 0,
            "byteLength" : 2304,
            "byteOffset" : 16960
        }
    ],
    "buffers" : [
        {
            "byteLength" : 19264,
            "uri" : "sign-7615b591210d55084ef06b5cd9f61cd9.bin"
        }
    ]
}
