{
    "asset" : {
        "generator" : "Khronos glTF Blender I/O v3.4.50",
        "version" : "2.0"
    },
    "scene" : 0,
    "scenes" : [
        {
            "name" : "Scene",
            "nodes" : [
                1
            ]
        }
    ],
    "nodes" : [
        {
            "mesh" : 0,
            "name" : "Spikes"
        },
        {
            "children" : [
                0
            ],
            "mesh" : 1,
            "name" : "Base"
        }
    ],
    "animations" : [
        {
            "channels" : [
                {
                    "sampler" : 0,
                    "target" : {
                        "node" : 0,
                        "path" : "translation"
                    }
                },
                {
                    "sampler" : 1,
                    "target" : {
                        "node" : 0,
                        "path" : "scale"
                    }
                }
            ],
            "name" : "Switch",
            "samplers" : [
                {
                    "input" : 9,
                    "interpolation" : "LINEAR",
                    "output" : 10
                },
                {
                    "input" : 9,
                    "interpolation" : "LINEAR",
                    "output" : 11
                }
            ]
        },
        {
            "channels" : [
                {
                    "sampler" : 0,
                    "target" : {
                        "node" : 0,
                        "path" : "scale"
                    }
                },
                {
                    "sampler" : 1,
                    "target" : {
                        "node" : 0,
                        "path" : "translation"
                    }
                }
            ],
            "name" : "SwitchBack",
            "samplers" : [
                {
                    "input" : 9,
                    "interpolation" : "LINEAR",
                    "output" : 12
                },
                {
                    "input" : 9,
                    "interpolation" : "LINEAR",
                    "output" : 13
                }
            ]
        }
    ],
    "materials" : [
        {
            "doubleSided" : true,
            "name" : "base",
            "pbrMetallicRoughness" : {
                "baseColorFactor" : [
                    0.310813844203949,
                    0.310813844203949,
                    0.310813844203949,
                    1
                ],
                "roughnessFactor" : 0.5
            }
        },
        {
            "doubleSided" : true,
            "name" : "Base",
            "pbrMetallicRoughness" : {
                "baseColorFactor" : [
                    0.8000000715255737,
                    0.14804737269878387,
                    0.010053914040327072,
                    1
                ],
                "metallicFactor" : 0,
                "roughnessFactor" : 0.4000000059604645
            }
        }
    ],
    "meshes" : [
        {
            "name" : "Cone.001",
            "primitives" : [
                {
                    "attributes" : {
                        "POSITION" : 0,
                        "TEXCOORD_0" : 1,
                        "NORMAL" : 2
                    },
                    "indices" : 3,
                    "material" : 0
                }
            ]
        },
        {
            "name" : "Cube",
            "primitives" : [
                {
                    "attributes" : {
                        "POSITION" : 4,
                        "TEXCOORD_0" : 5,
                        "NORMAL" : 6,
                        "TANGENT" : 7
                    },
                    "indices" : 8,
                    "material" : 1
                }
            ]
        }
    ],
    "accessors" : [
        {
            "bufferView" : 0,
            "componentType" : 5126,
            "count" : 260,
            "max" : [
                0.9633004069328308,
                0.3602244555950165,
                0.9633004069328308
            ],
            "min" : [
                -0.9633004069328308,
                -0.5663764476776123,
                -0.9633004069328308
            ],
            "type" : "VEC3"
        },
        {
            "bufferView" : 1,
            "componentType" : 5126,
            "count" : 260,
            "type" : "VEC2"
        },
        {
            "bufferView" : 2,
            "componentType" : 5126,
            "count" : 260,
            "type" : "VEC3"
        },
        {
            "bufferView" : 3,
            "componentType" : 5123,
            "count" : 744,
            "type" : "SCALAR"
        },
        {
            "bufferView" : 4,
            "componentType" : 5126,
            "count" : 792,
            "max" : [
                1,
                -0.5456414818763733,
                1
            ],
            "min" : [
                -1,
                -0.8608596920967102,
                -1
            ],
            "type" : "VEC3"
        },
        {
            "bufferView" : 5,
            "componentType" : 5126,
            "count" : 792,
            "type" : "VEC2"
        },
        {
            "bufferView" : 6,
            "componentType" : 5126,
            "count" : 792,
            "type" : "VEC3"
        },
        {
            "bufferView" : 7,
            "componentType" : 5126,
            "count" : 792,
            "type" : "VEC4"
        },
        {
            "bufferView" : 8,
            "componentType" : 5123,
            "count" : 1188,
            "type" : "SCALAR"
        },
        {
            "bufferView" : 9,
            "componentType" : 5126,
            "count" : 11,
            "max" : [
                0.4166666666666667
            ],
            "min" : [
                0
            ],
            "type" : "SCALAR"
        },
        {
            "bufferView" : 10,
            "componentType" : 5126,
            "count" : 11,
            "type" : "VEC3"
        },
        {
            "bufferView" : 11,
            "componentType" : 5126,
            "count" : 11,
            "type" : "VEC3"
        },
        {
            "bufferView" : 12,
            "componentType" : 5126,
            "count" : 11,
            "type" : "VEC3"
        },
        {
            "bufferView" : 13,
            "componentType" : 5126,
            "count" : 11,
            "type" : "VEC3"
        }
    ],
    "bufferViews" : [
        {
            "buffer" : 0,
            "byteLength" : 3120,
            "byteOffset" : 0,
            "target" : 34962
        },
        {
            "buffer" : 0,
            "byteLength" : 2080,
            "byteOffset" : 3120,
            "target" : 34962
        },
        {
            "buffer" : 0,
            "byteLength" : 3120,
            "byteOffset" : 5200,
            "target" : 34962
        },
        {
            "buffer" : 0,
            "byteLength" : 1488,
            "byteOffset" : 8320,
            "target" : 34963
        },
        {
            "buffer" : 0,
            "byteLength" : 9504,
            "byteOffset" : 9808,
            "target" : 34962
        },
        {
            "buffer" : 0,
            "byteLength" : 6336,
            "byteOffset" : 19312,
            "target" : 34962
        },
        {
            "buffer" : 0,
            "byteLength" : 9504,
            "byteOffset" : 25648,
            "target" : 34962
        },
        {
            "buffer" : 0,
            "byteLength" : 12672,
            "byteOffset" : 35152,
            "target" : 34962
        },
        {
            "buffer" : 0,
            "byteLength" : 2376,
            "byteOffset" : 47824,
            "target" : 34963
        },
        {
            "buffer" : 0,
            "byteLength" : 44,
            "byteOffset" : 50200
        },
        {
            "buffer" : 0,
            "byteLength" : 132,
            "byteOffset" : 50244
        },
        {
            "buffer" : 0,
            "byteLength" : 132,
            "byteOffset" : 50376
        },
        {
            "buffer" : 0,
            "byteLength" : 132,
            "byteOffset" : 50508
        },
        {
            "buffer" : 0,
            "byteLength" : 132,
            "byteOffset" : 50640
        }
    ],
    "buffers" : [
        {
            "byteLength" : 50772,
            "uri" : "spike-c12308b2b60b792648e1e4afb501b1ab.bin"
        }
    ]
}
