{
    "asset" : {
        "generator" : "Khronos glTF Blender I/O v3.4.50",
        "version" : "2.0"
    },
    "extensionsUsed" : [
        "KHR_materials_specular",
        "KHR_materials_ior"
    ],
    "scene" : 0,
    "scenes" : [
        {
            "name" : "Scene",
            "nodes" : [
                0,
                1
            ]
        }
    ],
    "nodes" : [
        {
            "mesh" : 0,
            "name" : "Shaft",
            "scale" : [
                0.22044551372528076,
                0.22044551372528076,
                0.22044551372528076
            ]
        },
        {
            "mesh" : 1,
            "name" : "Blade",
            "scale" : [
                0.22044551372528076,
                0.22044551372528076,
                0.22044551372528076
            ]
        }
    ],
    "materials" : [
        {
            "doubleSided" : true,
            "name" : "ShaftBorder",
            "pbrMetallicRoughness" : {
                "baseColorFactor" : [
                    0.8000000715255737,
                    0.6327934861183167,
                    0.001864246092736721,
                    1
                ],
                "metallicFactor" : 0,
                "roughnessFactor" : 0.5
            }
        },
        {
            "doubleSided" : true,
            "name" : "ShaftWood",
            "pbrMetallicRoughness" : {
                "baseColorFactor" : [
                    0.21403418481349945,
                    0.05963009223341942,
                    0.022103004157543182,
                    1
                ],
                "metallicFactor" : 0,
                "roughnessFactor" : 0.5
            }
        },
        {
            "doubleSided" : true,
            "extensions" : {
                "KHR_materials_specular" : {
                    "specularColorFactor" : [
                        1.6894387442458516,
                        1.6894387442458516,
                        1.6894387442458516
                    ]
                },
                "KHR_materials_ior" : {
                    "ior" : 1.4500000476837158
                }
            },
            "name" : "Blade",
            "pbrMetallicRoughness" : {
                "baseColorFactor" : [
                    0.20791569352149963,
                    0.20791569352149963,
                    0.20791569352149963,
                    1
                ],
                "metallicFactor" : 0.7927460670471191,
                "roughnessFactor" : 0.22538858652114868
            }
        }
    ],
    "meshes" : [
        {
            "name" : "Cube",
            "primitives" : [
                {
                    "attributes" : {
                        "POSITION" : 0,
                        "TEXCOORD_0" : 1,
                        "NORMAL" : 2,
                        "TANGENT" : 3
                    },
                    "indices" : 4,
                    "material" : 0
                },
                {
                    "attributes" : {
                        "POSITION" : 5,
                        "TEXCOORD_0" : 6,
                        "NORMAL" : 7,
                        "TANGENT" : 8
                    },
                    "indices" : 9,
                    "material" : 1
                }
            ]
        },
        {
            "name" : "Cube.001",
            "primitives" : [
                {
                    "attributes" : {
                        "POSITION" : 10,
                        "TEXCOORD_0" : 11,
                        "NORMAL" : 12,
                        "TANGENT" : 13
                    },
                    "indices" : 14,
                    "material" : 2
                }
            ]
        }
    ],
    "accessors" : [
        {
            "bufferView" : 0,
            "componentType" : 5126,
            "count" : 1230,
            "max" : [
                0.2559647262096405,
                -0.000521540641784668,
                0.22334811091423035
            ],
            "min" : [
                -0.2559647262096405,
                -0.397007018327713,
                -0.22334811091423035
            ],
            "type" : "VEC3"
        },
        {
            "bufferView" : 1,
            "componentType" : 5126,
            "count" : 1230,
            "type" : "VEC2"
        },
        {
            "bufferView" : 2,
            "componentType" : 5126,
            "count" : 1230,
            "type" : "VEC3"
        },
        {
            "bufferView" : 3,
            "componentType" : 5126,
            "count" : 1230,
            "type" : "VEC4"
        },
        {
            "bufferView" : 4,
            "componentType" : 5123,
            "count" : 3456,
            "type" : "SCALAR"
        },
        {
            "bufferView" : 5,
            "componentType" : 5126,
            "count" : 642,
            "max" : [
                0.08761275559663773,
                -0.11748301237821579,
                0.085687056183815
            ],
            "min" : [
                -0.08761276304721832,
                -0.3355553150177002,
                -0.0856870636343956
            ],
            "type" : "VEC3"
        },
        {
            "bufferView" : 6,
            "componentType" : 5126,
            "count" : 642,
            "type" : "VEC2"
        },
        {
            "bufferView" : 7,
            "componentType" : 5126,
            "count" : 642,
            "type" : "VEC3"
        },
        {
            "bufferView" : 8,
            "componentType" : 5126,
            "count" : 642,
            "type" : "VEC4"
        },
        {
            "bufferView" : 9,
            "componentType" : 5123,
            "count" : 1536,
            "type" : "SCALAR"
        },
        {
            "bufferView" : 10,
            "componentType" : 5126,
            "count" : 92,
            "max" : [
                0.174725741147995,
                1.3277710676193237,
                0.10340955853462219
            ],
            "min" : [
                -0.174725741147995,
                -0.02512061595916748,
                -0.10340955853462219
            ],
            "type" : "VEC3"
        },
        {
            "bufferView" : 11,
            "componentType" : 5126,
            "count" : 92,
            "type" : "VEC2"
        },
        {
            "bufferView" : 12,
            "componentType" : 5126,
            "count" : 92,
            "type" : "VEC3"
        },
        {
            "bufferView" : 13,
            "componentType" : 5126,
            "count" : 92,
            "type" : "VEC4"
        },
        {
            "bufferView" : 14,
            "componentType" : 5123,
            "count" : 132,
            "type" : "SCALAR"
        }
    ],
    "bufferViews" : [
        {
            "buffer" : 0,
            "byteLength" : 14760,
            "byteOffset" : 0,
            "target" : 34962
        },
        {
            "buffer" : 0,
            "byteLength" : 9840,
            "byteOffset" : 14760,
            "target" : 34962
        },
        {
            "buffer" : 0,
            "byteLength" : 14760,
            "byteOffset" : 24600,
            "target" : 34962
        },
        {
            "buffer" : 0,
            "byteLength" : 19680,
            "byteOffset" : 39360,
            "target" : 34962
        },
        {
            "buffer" : 0,
            "byteLength" : 6912,
            "byteOffset" : 59040,
            "target" : 34963
        },
        {
            "buffer" : 0,
            "byteLength" : 7704,
            "byteOffset" : 65952,
            "target" : 34962
        },
        {
            "buffer" : 0,
            "byteLength" : 5136,
            "byteOffset" : 73656,
            "target" : 34962
        },
        {
            "buffer" : 0,
            "byteLength" : 7704,
            "byteOffset" : 78792,
            "target" : 34962
        },
        {
            "buffer" : 0,
            "byteLength" : 10272,
            "byteOffset" : 86496,
            "target" : 34962
        },
        {
            "buffer" : 0,
            "byteLength" : 3072,
            "byteOffset" : 96768,
            "target" : 34963
        },
        {
            "buffer" : 0,
            "byteLength" : 1104,
            "byteOffset" : 99840,
            "target" : 34962
        },
        {
            "buffer" : 0,
            "byteLength" : 736,
            "byteOffset" : 100944,
            "target" : 34962
        },
        {
            "buffer" : 0,
            "byteLength" : 1104,
            "byteOffset" : 101680,
            "target" : 34962
        },
        {
            "buffer" : 0,
            "byteLength" : 1472,
            "byteOffset" : 102784,
            "target" : 34962
        },
        {
            "buffer" : 0,
            "byteLength" : 264,
            "byteOffset" : 104256,
            "target" : 34963
        }
    ],
    "buffers" : [
        {
            "byteLength" : 104520,
            "uri" : "Sword-b48666d609c8e0c189d722c809c56346.bin"
        }
    ]
}
