{
    "asset" : {
        "generator" : "Khronos glTF Blender I/O v3.2.43",
        "version" : "2.0"
    },
    "scene" : 0,
    "scenes" : [
        {
            "name" : "Scene",
            "nodes" : [
                0
            ]
        }
    ],
    "nodes" : [
        {
            "mesh" : 0,
            "name" : "Cube"
        }
    ],
    "materials" : [
        {
            "doubleSided" : true,
            "name" : "Material",
            "pbrMetallicRoughness" : {
                "baseColorFactor" : [
                    0.800000011920929,
                    0.800000011920929,
                    0.800000011920929,
                    1
                ],
                "metallicFactor" : 0,
                "roughnessFactor" : 0.4000000059604645
            }
        }
    ],
    "meshes" : [
        {
            "name" : "Cube",
            "primitives" : [
                {
                    "attributes" : {
                        "POSITION" : 0,
                        "NORMAL" : 1,
                        "TANGENT" : 2,
                        "TEXCOORD_0" : 3
                    },
                    "indices" : 4,
                    "material" : 0
                }
            ]
        }
    ],
    "accessors" : [
        {
            "bufferView" : 0,
            "componentType" : 5126,
            "count" : 45568,
            "max" : [
                1.3179913759231567,
                1.1486879587173462,
                1.3080127239227295
            ],
            "min" : [
                -1.3179913759231567,
                -1.7415932416915894,
                -1.3080127239227295
            ],
            "type" : "VEC3"
        },
        {
            "bufferView" : 1,
            "componentType" : 5126,
            "count" : 45568,
            "type" : "VEC3"
        },
        {
            "bufferView" : 2,
            "componentType" : 5126,
            "count" : 45568,
            "type" : "VEC4"
        },
        {
            "bufferView" : 3,
            "componentType" : 5126,
            "count" : 45568,
            "type" : "VEC2"
        },
        {
            "bufferView" : 4,
            "componentType" : 5123,
            "count" : 68352,
            "type" : "SCALAR"
        }
    ],
    "bufferViews" : [
        {
            "buffer" : 0,
            "byteLength" : 546816,
            "byteOffset" : 0
        },
        {
            "buffer" : 0,
            "byteLength" : 546816,
            "byteOffset" : 546816
        },
        {
            "buffer" : 0,
            "byteLength" : 729088,
            "byteOffset" : 1093632
        },
        {
            "buffer" : 0,
            "byteLength" : 364544,
            "byteOffset" : 1822720
        },
        {
            "buffer" : 0,
            "byteLength" : 136704,
            "byteOffset" : 2187264
        }
    ],
    "buffers" : [
        {
            "byteLength" : 2323968,
            "uri" : "untitled-4ee6b0f4dd0452dc16acafa62068e185.bin"
        }
    ]
}
