{
    "asset" : {
        "generator" : "Khronos glTF Blender I/O v3.2.43",
        "version" : "2.0"
    },
    "scene" : 0,
    "scenes" : [
        {
            "name" : "Scene",
            "nodes" : [
                0
            ]
        }
    ],
    "nodes" : [
        {
            "mesh" : 0,
            "name" : "Plane"
        }
    ],
    "meshes" : [
        {
            "name" : "Plane",
            "primitives" : [
                {
                    "attributes" : {
                        "POSITION" : 0,
                        "NORMAL" : 1,
                        "TEXCOORD_0" : 2
                    },
                    "indices" : 3
                }
            ]
        }
    ],
    "accessors" : [
        {
            "bufferView" : 0,
            "componentType" : 5126,
            "count" : 440,
            "max" : [
                1,
                0.08629988133907318,
                1.0107598304748535
            ],
            "min" : [
                -1,
                -1.0147522687911987,
                -1.906408429145813
            ],
            "type" : "VEC3"
        },
        {
            "bufferView" : 1,
            "componentType" : 5126,
            "count" : 440,
            "type" : "VEC3"
        },
        {
            "bufferView" : 2,
            "componentType" : 5126,
            "count" : 440,
            "type" : "VEC2"
        },
        {
            "bufferView" : 3,
            "componentType" : 5123,
            "count" : 675,
            "type" : "SCALAR"
        }
    ],
    "bufferViews" : [
        {
            "buffer" : 0,
            "byteLength" : 5280,
            "byteOffset" : 0
        },
        {
            "buffer" : 0,
            "byteLength" : 5280,
            "byteOffset" : 5280
        },
        {
            "buffer" : 0,
            "byteLength" : 3520,
            "byteOffset" : 10560
        },
        {
            "buffer" : 0,
            "byteLength" : 1350,
            "byteOffset" : 14080
        }
    ],
    "buffers" : [
        {
            "byteLength" : 15432,
            "uri" : "valley-3d964359af19033ea93174152533064e.bin"
        }
    ]
}
